<svg width="24" height="24" viewBox="0 0 24 24" fill="none" xmlns="http://www.w3.org/2000/svg">
  <g id="get_app_24px">
    <path id="icon/action/get_app_24px" fill-rule="evenodd" clip-rule="evenodd"
      d="M8.5 4.5C8.5 3.67386 9.17386 3 10 3H14C14.8261 3 15.5 3.67386 15.5 4.5V9H16.59C17.9338 9 18.5826 10.6245 17.6436 11.5636L13.0536 16.1536C12.4683 16.7388 11.5217 16.7388 10.9364 16.1536L6.34645 11.5636C5.39983 10.6169 6.07686 9 7.41 9H8.5V4.5ZM10 4C9.72614 4 9.5 4.22614 9.5 4.5V9.5V10H9H7.41C6.96314 10 6.74017 10.5431 7.05355 10.8564L11.6436 15.4464C11.8383 15.6412 12.1517 15.6412 12.3464 15.4464L16.9364 10.8564C17.2574 10.5355 17.0262 10 16.59 10H15H14.5V9.5V4.5C14.5 4.22614 14.2739 4 14 4H10ZM19 20H5V19H19V20Z" />
  </g>
</svg>