<svg width="24" height="24" viewBox="0 0 24 24" fill="none" xmlns="http://www.w3.org/2000/svg">
  <path fill-rule="evenodd" clip-rule="evenodd"
    d="M6.34646 7.56355C5.39985 6.61694 6.07688 5 7.41002 5H16.59C17.9338 5 18.5826 6.62449 17.6436 7.56355L13.0536 12.1536C12.4683 12.7388 11.5217 12.7388 10.9365 12.1536L6.34646 7.56355ZM7.41002 6C6.96316 6 6.74019 6.54306 7.05357 6.85645L11.6436 11.4464C11.8383 11.6412 12.1517 11.6412 12.3465 11.4464L16.9365 6.85645C17.2574 6.53551 17.0262 6 16.59 6H7.41002ZM19 19.5H5V18.5H19V19.5Z" />
  <path d="M12 12L12 18.5" stroke-width="2" />
</svg>