<svg width="183" height="174" viewBox="0 0 183 174" fill="none" xmlns="http://www.w3.org/2000/svg">
<path d="M54.8555 136.949L108.352 44.2908C112.617 34.058 109.309 22.0209 100.03 15.4702L99.5953 15.1634C88.0625 7.02185 72.028 10.5443 64.9694 22.77L13 112.784C6.3726 124.263 10.4487 139.024 21.9278 145.651C33.4068 152.278 48.2281 148.428 54.8555 136.949Z" fill="#0A75D0"/>
<path d="M110.376 40.7844L54.8555 136.949C48.2281 148.428 33.4068 152.278 21.9278 145.651V145.651C10.4487 139.024 6.3726 124.263 13 112.784L64.9694 22.77C72.028 10.5443 88.0625 7.02185 99.5953 15.1634L100.03 15.4702C110.167 22.6266 113.178 36.3306 106.973 47.0769L57.5137 132.743" stroke="#0A75D0"/>
<rect x="67.5" y="0.5" width="115" height="171" rx="3.5" stroke="black"/>
<path d="M53.5 12C53.5 10.067 55.067 8.5 57 8.5H68.5V163.5H57C55.067 163.5 53.5 161.933 53.5 160V12Z" stroke="black"/>
<path d="M41.5 18C41.5 16.067 43.067 14.5 45 14.5H54.5V157.5H45C43.067 157.5 41.5 155.933 41.5 154V18Z" stroke="black"/>
<line x1="85" y1="38.5" x2="168" y2="38.5" stroke="black"/>
<line x1="85" y1="67.5" x2="168" y2="67.5" stroke="black"/>
<line x1="85" y1="96.5" x2="168" y2="96.5" stroke="black"/>
<line x1="85" y1="125.5" x2="168" y2="125.5" stroke="black"/>
<line x1="85" y1="154.5" x2="168" y2="154.5" stroke="black"/>
<path d="M114.376 56.1799L58.8555 152.345C52.2281 163.824 37.4068 167.674 25.9278 161.046V161.046C14.4487 154.419 10.3726 139.658 17 128.179L74.1199 29.2447C78.5359 21.596 88.3162 18.9754 95.965 23.3914V23.3914C103.614 27.8074 106.234 37.5878 101.818 45.2365L53.8431 128.332C51.3898 132.581 45.9563 134.037 41.707 131.584V131.584C37.4577 129.131 36.0018 123.697 38.4551 119.448L84.8311 39.122" stroke="black"/>
</svg>
