<svg width="179" height="174" viewBox="0 0 179 174" fill="none" xmlns="http://www.w3.org/2000/svg">
<rect x="63.5" y="0.5" width="115" height="171" rx="3.5" stroke="black"/>
<line x1="81" y1="38.5" x2="164" y2="38.5" stroke="black"/>
<line x1="81" y1="67.5" x2="164" y2="67.5" stroke="black"/>
<line x1="81" y1="96.5" x2="164" y2="96.5" stroke="black"/>
<line x1="81" y1="125.5" x2="164" y2="125.5" stroke="black"/>
<line x1="81" y1="154.5" x2="164" y2="154.5" stroke="black"/>
<path d="M110.376 56.1799L54.8555 152.345C48.2281 163.824 33.4068 167.674 21.9278 161.046V161.046C10.4487 154.419 6.3726 139.658 13 128.179L70.1199 29.2447C74.5359 21.596 84.3162 18.9754 91.965 23.3914V23.3914C99.6137 27.8074 102.234 37.5878 97.8184 45.2365L49.8431 128.332C47.3898 132.581 41.9563 134.037 37.707 131.584V131.584C33.4577 129.131 32.0018 123.697 34.4551 119.448L80.8311 39.122" stroke="black"/>
</svg>
