<svg width="60" height="117" viewBox="0 0 60 117" fill="none" xmlns="http://www.w3.org/2000/svg">
<path d="M44.4235 95.5254H15.5055C14.9926 95.5254 14.5006 95.7292 14.1379 96.0919C13.7752 96.4546 13.5714 96.9465 13.5714 97.4595C13.5714 97.9724 13.7752 98.4644 14.1379 98.8271C14.5006 99.1898 14.9926 99.3936 15.5055 99.3936H44.4235C44.9365 99.3936 45.4284 99.1898 45.7912 98.8271C46.1539 98.4644 46.3576 97.9724 46.3576 97.4595C46.3576 96.9465 46.1539 96.4546 45.7912 96.0919C45.4284 95.7292 44.9365 95.5254 44.4235 95.5254Z" fill="#009845"/>
<path d="M33.4823 112.928H26.4467C25.9337 112.928 25.4418 113.132 25.0791 113.494C24.7163 113.857 24.5126 114.349 24.5126 114.862C24.5126 115.375 24.7163 115.867 25.0791 116.229C25.4418 116.592 25.9337 116.796 26.4467 116.796H33.4823C33.9953 116.796 34.4872 116.592 34.8499 116.229C35.2126 115.867 35.4164 115.375 35.4164 114.862C35.4164 114.349 35.2126 113.857 34.8499 113.494C34.4872 113.132 33.9953 112.928 33.4823 112.928Z" fill="#009845"/>
<path d="M44.4235 101.314H15.5055C14.9926 101.314 14.5006 101.518 14.1379 101.88C13.7752 102.243 13.5714 102.735 13.5714 103.248C13.5714 103.761 13.7752 104.253 14.1379 104.616C14.5006 104.978 14.9926 105.182 15.5055 105.182H44.4235C44.9365 105.182 45.4284 104.978 45.7912 104.616C46.1539 104.253 46.3576 103.761 46.3576 103.248C46.3576 102.735 46.1539 102.243 45.7912 101.88C45.4284 101.518 44.9365 101.314 44.4235 101.314Z" fill="#009845"/>
<path d="M44.4235 107.098H15.5055C14.9926 107.098 14.5006 107.301 14.1379 107.664C13.7752 108.027 13.5714 108.519 13.5714 109.032C13.5714 109.545 13.7752 110.037 14.1379 110.399C14.5006 110.762 14.9926 110.966 15.5055 110.966H44.4235C44.9365 110.966 45.4284 110.762 45.7912 110.399C46.1539 110.037 46.3576 109.545 46.3576 109.032C46.3576 108.519 46.1539 108.027 45.7912 107.664C45.4284 107.301 44.9365 107.098 44.4235 107.098Z" fill="#009845"/>
<path d="M15.8232 43.2256C16.4427 43.2256 17.0368 42.9795 17.4749 42.5415C17.9129 42.1034 18.159 41.5093 18.159 40.8898V9.41161C18.1978 8.17548 18.7161 7.00294 19.6042 6.14223C20.4922 5.28153 21.6804 4.80023 22.9172 4.80023C24.1539 4.80023 25.3421 5.28153 26.2302 6.14223C27.1183 7.00294 27.6366 8.17548 27.6754 9.41161V40.9131C27.7547 41.4699 28.0323 41.9794 28.4571 42.348C28.8819 42.7165 29.4254 42.9195 29.9879 42.9195C30.5503 42.9195 31.0938 42.7165 31.5186 42.348C31.9435 41.9794 32.221 41.4699 32.3004 40.9131V9.41161C32.3391 8.17548 32.8574 7.00294 33.7455 6.14223C34.6336 5.28153 35.8218 4.80023 37.0585 4.80023C38.2953 4.80023 39.4835 5.28153 40.3716 6.14223C41.2597 7.00294 41.778 8.17548 41.8167 9.41161V40.9131C41.8924 41.4734 42.1687 41.9872 42.5943 42.3592C43.02 42.7313 43.5662 42.9363 44.1315 42.9363C44.6969 42.9363 45.243 42.7313 45.6687 42.3592C46.0944 41.9872 46.3707 41.4734 46.4464 40.9131V9.41161C46.4536 7.49454 45.8731 5.62132 44.7829 4.04437C43.6927 2.46743 42.1454 1.26254 40.3494 0.592088C38.5533 -0.0783657 36.595 -0.182168 34.7381 0.29467C32.8813 0.771508 31.2153 1.80607 29.9645 3.25894C28.7117 1.81491 27.0475 0.788331 25.1948 0.316796C23.3422 -0.154738 21.3897 -0.0486939 19.599 0.620716C17.8083 1.29013 16.265 2.49091 15.176 4.06213C14.087 5.63334 13.5043 7.4999 13.506 9.41161V40.9131C13.5121 41.5253 13.7583 42.1107 14.1917 42.5432C14.6251 42.9757 15.2109 43.2207 15.8232 43.2256Z" fill="#009845"/>
<path d="M36.9487 55.6901C36.9487 56.9487 37.322 58.1791 38.0214 59.2256C38.7208 60.272 39.7148 61.0876 40.8777 61.5691C42.0407 62.0505 43.3203 62.1762 44.5547 61.9303C45.7891 61.6845 46.9229 61.078 47.8125 60.1876C48.7022 59.2973 49.3079 58.1631 49.5528 56.9285C49.7978 55.6939 49.6712 54.4144 49.1888 53.2518C48.7065 52.0892 47.8903 51.0958 46.8433 50.3972C45.7963 49.6986 44.5656 49.3262 43.307 49.3272C41.6202 49.3284 40.003 49.9993 38.8107 51.1925C37.6185 52.3856 36.9487 54.0033 36.9487 55.6901Z" fill="#009845"/>
<path d="M59.9944 72.737C59.9865 72.7053 59.972 72.6756 59.9519 72.6498C59.9317 72.6241 59.9064 72.6028 59.8776 72.5875L43.5265 63.4823C43.5026 63.4419 43.4688 63.4081 43.4284 63.3842C43.3908 63.3624 43.3481 63.351 43.3046 63.351C43.2612 63.351 43.2185 63.3624 43.1808 63.3842L26.7223 72.6108C26.6651 72.6441 26.6233 72.6985 26.6058 72.7622C26.5884 72.826 26.5966 72.8941 26.6289 72.9519L26.6756 73.036C27.4948 74.4941 28.8592 75.5674 30.4692 76.0203C32.0791 76.4731 33.803 76.2685 35.2622 75.4512L38.7754 73.4985V79.1606L32.1555 82.898C31.3083 83.374 30.5836 84.041 30.0392 84.8461C29.4919 84.0249 28.7569 83.3459 27.8949 82.8653L21.2797 79.1746V70.0133H26.7363C26.7785 70.0141 26.8202 70.0045 26.8578 69.9853L37.841 63.828C37.8791 63.8029 37.9104 63.769 37.9324 63.7291C37.9544 63.6892 37.9663 63.6446 37.9672 63.5991C37.9672 63.5329 37.9412 63.4695 37.8949 63.4223C37.8486 63.3751 37.7857 63.348 37.7196 63.3468H16.6407C16.5964 63.3455 16.5527 63.3568 16.5146 63.3795L0.0467173 72.6108L0 73.036C0.81919 74.4953 2.18445 75.5696 3.79555 76.0225C5.40666 76.4754 7.13169 76.27 8.59132 75.4512L12.0764 73.4985V79.1606L5.45658 82.898C3.99802 83.718 2.92476 85.0836 2.47272 86.6946C2.02069 88.3056 2.22688 90.0302 3.04597 91.4893L3.09269 91.5734C3.11528 91.6116 3.14738 91.6433 3.18586 91.6654C3.22433 91.6875 3.26788 91.6993 3.31226 91.6995C3.35504 91.7004 3.39718 91.6891 3.43372 91.6668L16.6641 84.2107L29.7449 91.5127V91.5547C29.7675 91.5929 29.7996 91.6246 29.8381 91.6467C29.8766 91.6688 29.9201 91.6806 29.9645 91.6808C30.0071 91.6804 30.0489 91.6691 30.086 91.6481L43.2743 84.2341L56.528 91.6341C56.5583 91.6468 56.5909 91.6534 56.6237 91.6534C56.6566 91.6534 56.6892 91.6468 56.7195 91.6341C56.7501 91.6251 56.7787 91.6102 56.8035 91.5901C56.8284 91.5701 56.8491 91.5454 56.8643 91.5173L56.9111 91.4332C57.7255 89.9715 57.9267 88.2463 57.4703 86.6364C57.014 85.0265 55.9374 83.6635 54.4771 82.8466L47.8479 79.1466V73.4844L51.3423 75.4279C52.0662 75.8313 52.8624 76.0881 53.6856 76.1837C54.5088 76.2792 55.3427 76.2116 56.1397 75.9847C56.9367 75.7578 57.6811 75.376 58.3305 74.8612C58.9799 74.3465 59.5215 73.7088 59.9243 72.9846L59.971 72.9005C59.9985 72.8506 60.0068 72.7925 59.9944 72.737Z" fill="#009845"/>
<path d="M16.6361 62.048C20.1476 62.048 22.9943 59.2013 22.9943 55.6898C22.9943 52.1782 20.1476 49.3315 16.6361 49.3315C13.1245 49.3315 10.2778 52.1782 10.2778 55.6898C10.2778 59.2013 13.1245 62.048 16.6361 62.048Z" fill="#009845"/>
</svg>
