<svg width="1440" height="757" viewBox="0 0 1440 757" fill="none" xmlns="http://www.w3.org/2000/svg">
<path d="M536.969 -531.557L873.198 -195.328L750.129 263.97L290.832 387.038L-45.3976 50.8091L77.6709 -408.489L536.969 -531.557Z" fill="#A1D7C0"/>
<path d="M-44.5646 50.7735L291.665 387.003L168.596 846.301L-290.701 969.369L-626.931 633.14L-503.862 173.842L-44.5646 50.7735Z" fill="#A9DBBD"/>
<path d="M750.392 263.782L1086.62 600.011L963.553 1059.31L504.256 1182.38L168.026 846.148L291.095 386.85L750.392 263.782Z" fill="#C2ECD2"/>
<path d="M1331.93 -318.549L1668.15 17.6805L1545.09 476.978L1085.79 600.047L749.559 263.817L872.628 -195.48L1331.93 -318.549Z" fill="#EAF5D6"/>
<path d="M1545.35 476.79L1881.58 813.019L1758.51 1272.32L1299.21 1395.39L962.983 1059.16L1086.05 599.858L1545.35 476.79Z" fill="#AFDEBB"/>
</svg>
