<svg width="1440" height="1526" viewBox="0 0 1440 1526" fill="none" xmlns="http://www.w3.org/2000/svg">
<path d="M122.904 -289.447L576.082 -145.467L677.981 318.986L326.702 639.46L-126.476 495.48L-228.374 31.0269L122.904 -289.447Z" fill="#A1D7C0"/>
<path d="M-125.753 495.077L327.425 639.056L429.324 1103.51L78.0449 1423.98L-375.133 1280L-477.032 815.55L-125.753 495.077Z" fill="#A9DBBD"/>
<path d="M678.128 318.698L1131.31 462.678L1233.2 927.131L881.926 1247.6L428.748 1103.62L326.849 639.171L678.128 318.698Z" fill="#C2ECD2"/>
<path d="M926.785 -465.814L1379.96 -321.834L1481.86 142.619L1130.58 463.093L677.405 319.113L575.506 -145.34L926.785 -465.814Z" fill="#EAF5D6"/>
<path d="M1482.01 142.331L1935.18 286.31L2037.08 750.764L1685.8 1071.24L1232.63 927.258L1130.73 462.804L1482.01 142.331Z" fill="#AFDEBB"/>
</svg>
