<svg width="193" height="65" viewBox="0 0 193 65" fill="none" xmlns="http://www.w3.org/2000/svg">
<path d="M12.1744 18.2076C9.17224 18.2725 6.21731 18.9681 3.50148 20.2492L1.83154 15.5464C3.32292 14.6341 4.96448 13.9939 6.67974 13.6556C8.43326 13.1958 10.2331 12.9356 12.0451 12.8799C14.1891 12.8536 16.3093 13.3315 18.2346 14.2751C20.006 15.13 21.515 16.4454 22.6034 18.0837C23.639 19.6431 24.1883 21.4748 24.1818 23.3467V43.7199H20.0339L19.2905 40.8756C18.0704 41.9324 16.6904 42.7888 15.2018 43.4128C13.7219 44.0846 12.1188 44.4422 10.4937 44.4633C7.0676 44.4633 4.46753 43.6068 2.69345 41.8937C0.919363 40.1807 0.0215476 37.9003 0 35.0524C0 32.1219 1.00196 29.8415 3.00589 28.211C5.00981 26.5806 7.6835 25.7654 11.027 25.7654H18.1484C18.1484 23.3305 17.7049 21.4613 16.8179 20.1576C15.9308 18.854 14.383 18.204 12.1744 18.2076ZM10.9354 29.7247C10.1833 29.6831 9.43081 29.7997 8.72655 30.0669C8.02229 30.3341 7.38191 30.7461 6.84674 31.2762C6.361 31.7745 5.97936 32.3646 5.72409 33.0121C5.46882 33.6595 5.34504 34.3512 5.35996 35.047C5.3421 36.2787 5.80825 37.4683 6.6582 38.3599C7.14421 38.8416 7.72668 39.215 8.36731 39.4555C9.00795 39.6959 9.69222 39.7981 10.3752 39.7551C11.8468 39.7499 13.2942 39.3797 14.5877 38.6778C15.9666 37.9415 17.2033 36.9656 18.24 35.7958V29.7247H10.9354Z" fill="white"/>
<path d="M38.8018 14.0597H44.2533L46.1064 18.5793H38.8018V34.4329C38.734 35.7861 39.1125 37.1242 39.8791 38.2414C40.2637 38.7193 40.7592 39.0962 41.3224 39.3394C41.8856 39.5825 42.4997 39.6845 43.1113 39.6366C44.1004 39.5746 45.0716 39.3432 45.9825 38.9525L47.5285 43.4721C46.7681 43.8579 45.9679 44.1595 45.1421 44.3717C44.2666 44.6271 43.3606 44.763 42.4487 44.7757C39.4751 44.7757 37.1408 43.9605 35.4457 42.3301C33.7506 40.6996 32.8941 38.3761 32.8762 35.3594V18.5793H28.669L28.6044 14.0597H32.8762V6.5665L38.8018 5.20361V14.0597Z" fill="white"/>
<path d="M63.1397 39.6366C64.7521 39.5763 66.3248 39.1192 67.7186 38.3061C69.4733 37.3459 71.1157 36.1931 72.6152 34.8692V13.688H78.5408V43.7199H74.3929L73.3425 39.7605C71.7139 41.2139 69.8762 42.4142 67.8909 43.3213C66.0133 44.2145 63.9638 44.6888 61.8845 44.7111C58.6201 44.7111 56.1942 43.7002 54.6068 41.6783C53.0195 39.6564 52.2241 36.9324 52.2205 33.5064V13.688H58.146V32.9461C58.146 35.1332 58.5052 36.796 59.2234 37.9344C59.9883 39.0656 61.2812 39.6366 63.1397 39.6366Z" fill="white"/>
<path d="M92.5523 0V43.72H86.6267V0.705682L92.5523 0Z" fill="white"/>
<path d="M111.934 18.2076C108.934 18.2725 105.981 18.9681 103.267 20.2493L101.591 15.5465C103.084 14.6358 104.725 13.9957 106.44 13.6557C108.19 13.1963 109.986 12.9361 111.794 12.88C113.94 12.853 116.062 13.3309 117.989 14.2752C119.76 15.1286 121.268 16.4444 122.352 18.0837C123.39 19.642 123.94 21.4744 123.931 23.3467V43.7199H119.783L119.04 40.8757C117.821 41.9313 116.443 42.7876 114.956 43.4129C113.476 44.0842 111.873 44.4418 110.248 44.4633C106.822 44.4633 104.22 43.6068 102.443 41.8938C100.665 40.1808 99.7778 37.9003 99.7814 35.0524C99.7814 32.122 100.783 29.8415 102.787 28.2111C104.791 26.5806 107.463 25.7654 110.803 25.7654H117.924C117.924 23.3306 117.481 21.4613 116.594 20.1577C115.707 18.854 114.154 18.204 111.934 18.2076ZM110.695 29.7248C109.944 29.6839 109.193 29.8009 108.489 30.0681C107.786 30.3353 107.147 30.7468 106.612 31.2762C106.126 31.7746 105.745 32.3647 105.489 33.0121C105.234 33.6595 105.11 34.3513 105.125 35.047C105.105 36.2792 105.571 37.4696 106.423 38.36C106.909 38.8417 107.492 39.215 108.133 39.4555C108.773 39.696 109.457 39.7981 110.14 39.7552C111.612 39.7499 113.059 39.3797 114.353 38.6778C115.731 37.9402 116.967 36.9645 118.005 35.7958V29.7248H110.695Z" fill="white"/>
<path d="M156.769 43.7198H153.365L152.19 41.4303C150.956 42.4202 149.562 43.1942 148.069 43.7198C146.834 44.2037 145.527 44.4768 144.202 44.5278C141.418 44.5964 138.667 43.9115 136.24 42.5454C134 41.2324 132.201 39.2821 131.074 36.9431C129.825 34.3022 129.208 31.4063 129.275 28.4856C129.215 25.6505 129.853 22.8442 131.133 20.3137C132.319 18.0158 134.148 16.1124 136.396 14.8352C138.798 13.4984 141.512 12.8235 144.261 12.8798C145.3 12.9073 146.331 13.074 147.326 13.3754C148.523 13.7164 149.676 14.1955 150.763 14.8029V0.705431L156.769 0.0859375V43.7198ZM144.202 39.448C145.426 39.4734 146.644 39.2631 147.789 38.8285C148.889 38.3761 149.897 37.7262 150.763 36.9107V20.3137C149.885 19.5318 148.867 18.9231 147.762 18.5199C146.615 18.1398 145.411 17.9576 144.202 17.9812C141.433 17.9812 139.265 18.9616 137.7 20.9224C136.134 22.8833 135.349 25.3972 135.346 28.4641C135.346 31.7645 136.12 34.4274 137.667 36.4529C139.215 38.4783 141.393 39.4767 144.202 39.448Z" fill="white"/>
<path d="M177.827 44.5277C175.064 44.5911 172.335 43.9061 169.929 42.5454C167.691 41.2403 165.891 39.2998 164.758 36.9699C163.519 34.3833 162.904 31.5417 162.964 28.6741C162.909 25.8188 163.547 22.9926 164.823 20.4376C166 18.1084 167.828 16.1714 170.086 14.8621C172.523 13.4991 175.282 12.8145 178.074 12.8798C180.837 12.8169 183.566 13.5019 185.972 14.8621C188.209 16.1766 190.015 18.1139 191.17 20.4376C192.429 23.0185 193.055 25.8623 192.996 28.7334C193.051 31.5881 192.415 34.4138 191.143 36.9699C189.961 39.3063 188.12 41.2447 185.848 42.5454C183.397 43.9059 180.629 44.5901 177.827 44.5277ZM186.93 28.798C186.93 25.5659 186.146 22.955 184.576 20.9655C183.007 18.9759 180.84 17.9686 178.074 17.9434C176.824 17.9006 175.58 18.1529 174.445 18.6797C173.31 19.2066 172.315 19.9933 171.54 20.9762C169.91 23.0017 169.075 25.5407 169.035 28.5933C169.035 31.8255 169.818 34.4381 171.384 36.4312C172.95 38.4244 175.117 39.4246 177.886 39.4317C179.136 39.4786 180.38 39.2299 181.517 38.7057C182.653 38.1815 183.65 37.3968 184.426 36.4151C186.056 34.3968 186.891 31.8578 186.93 28.798Z" fill="white"/>
<path d="M27.3816 54.5366H28.2974V57.995H32.6069V54.5366H33.528V62.3368H32.6069V58.7438H28.2974V62.3368H27.3816V54.5366Z" fill="white"/>
<path d="M35.9791 54.4668C36.0857 54.4668 36.1898 54.4984 36.2784 54.5576C36.367 54.6168 36.436 54.7009 36.4768 54.7993C36.5176 54.8978 36.5282 55.0061 36.5075 55.1106C36.4867 55.2151 36.4354 55.3111 36.36 55.3864C36.2847 55.4617 36.1887 55.513 36.0842 55.5338C35.9797 55.5546 35.8714 55.5439 35.773 55.5032C35.6745 55.4624 35.5904 55.3934 35.5312 55.3048C35.472 55.2162 35.4404 55.112 35.4404 55.0055C35.4404 54.8626 35.4972 54.7256 35.5982 54.6246C35.6992 54.5236 35.8362 54.4668 35.9791 54.4668ZM35.5374 56.67H36.4316V62.337H35.5374V56.67Z" fill="white"/>
<path d="M42.8742 62.3369H41.9692V61.8305C41.5311 62.2418 40.954 62.4726 40.3532 62.477C38.8556 62.477 37.8105 61.2487 37.8105 59.5034C37.8105 57.758 38.8556 56.5298 40.3532 56.5298C40.9518 56.5354 41.5272 56.7617 41.9692 57.1655V54.1865H42.8742V62.3369ZM40.5148 61.7174C40.7907 61.7068 41.0617 61.6407 41.3116 61.5232C41.5614 61.4057 41.7851 61.2391 41.9692 61.0333V57.9735C41.7851 57.7677 41.5614 57.6011 41.3116 57.4836C41.0617 57.366 40.7907 57.3 40.5148 57.2894C39.4697 57.2894 38.7479 58.1998 38.7479 59.5034C38.7479 60.807 39.4697 61.7174 40.5148 61.7174Z" fill="white"/>
<path d="M44.6789 56.6698H45.5731V57.3486C45.7594 57.1066 45.9961 56.9081 46.2668 56.7667C46.5375 56.6253 46.8357 56.5445 47.1407 56.5298C47.323 56.5328 47.5042 56.56 47.6794 56.6106V57.4294C47.4839 57.3693 47.2806 57.3384 47.076 57.3378C46.7716 57.3568 46.4757 57.4465 46.212 57.5998C45.9483 57.7532 45.724 57.966 45.5569 58.2213V62.3369H44.6627L44.6789 56.6698Z" fill="white"/>
<path d="M51.0731 56.5298C52.6891 56.5298 53.8096 57.758 53.8096 59.5033C53.8096 61.2487 52.673 62.4769 51.0731 62.4769C49.4732 62.4769 48.3419 61.2487 48.3419 59.5033C48.3419 57.758 49.4624 56.5298 51.0731 56.5298ZM51.0731 61.7281C52.1504 61.7281 52.8777 60.807 52.8777 59.5033C52.8777 58.1997 52.1289 57.2786 51.0731 57.2786C50.0172 57.2786 49.2577 58.1997 49.2577 59.5033C49.2577 60.807 50.0065 61.7281 51.0731 61.7281Z" fill="white"/>
<path d="M57.4027 56.5298C58.7979 56.5298 59.7191 57.6772 59.7191 59.3094C59.7191 59.4495 59.7191 59.5734 59.7191 59.708H55.6789C55.6695 59.9747 55.714 60.2404 55.8097 60.4895C55.9054 60.7385 56.0505 60.9656 56.2361 61.1572C56.4217 61.3489 56.644 61.5011 56.8899 61.6047C57.1357 61.7084 57.3999 61.7613 57.6667 61.7605C58.2609 61.7396 58.8375 61.553 59.3312 61.2218V62.0406C58.7806 62.3229 58.1723 62.4741 57.5536 62.4823C55.9375 62.4823 54.7739 61.2325 54.7739 59.4656C54.7739 57.6987 55.8729 56.5298 57.4027 56.5298ZM58.8356 59.0724C58.8356 57.995 58.2215 57.2462 57.3704 57.2462C56.4277 57.2462 55.7543 57.9842 55.6789 59.0724H58.8356Z" fill="white"/>
<path d="M61.0658 54.1865H61.9654V62.3369H61.0658V54.1865Z" fill="white"/>
<path d="M65.9894 56.5298C67.3846 56.5298 68.3058 57.6772 68.3058 59.3095C68.3058 59.4495 68.3058 59.5734 68.3058 59.7081H64.2764C64.2669 59.9747 64.3114 60.2405 64.4071 60.4895C64.5029 60.7385 64.6479 60.9656 64.8335 61.1573C65.0191 61.3489 65.2415 61.5011 65.4873 61.6048C65.7331 61.7084 65.9973 61.7614 66.2641 61.7605C66.8582 61.739 67.4346 61.5525 67.9287 61.2218V62.0406C67.3764 62.3235 66.7661 62.4747 66.1456 62.4823C64.5295 62.4823 63.366 61.2326 63.366 59.4657C63.366 57.6988 64.4595 56.5298 65.9894 56.5298ZM67.4169 59.0724C67.4169 57.9951 66.8082 57.2463 65.9571 57.2463C65.0144 57.2463 64.341 57.9843 64.2656 59.0724H67.4169ZM66.5227 54.1865H67.4654L66.1348 55.8618H65.3753L66.5227 54.1865Z" fill="white"/>
<path d="M72.0119 56.5298C72.5744 56.5343 73.1279 56.6709 73.628 56.9284V57.7688C73.1919 57.4618 72.6744 57.2912 72.1412 57.2786C70.983 57.2786 70.1588 58.1997 70.1588 59.5033C70.1588 60.807 70.983 61.7281 72.1412 61.7281C72.6744 61.7155 73.1919 61.5449 73.628 61.2379V62.0783C73.1279 62.3358 72.5744 62.4724 72.0119 62.4769C70.3959 62.4769 69.2323 61.2379 69.2323 59.5033C69.2323 57.7688 70.3797 56.5298 72.0119 56.5298Z" fill="white"/>
<path d="M76.3539 56.6698H78.3039V57.3809H76.3754V60.7261C76.3677 60.8588 76.388 60.9916 76.4349 61.1159C76.4819 61.2403 76.5544 61.3533 76.6479 61.4478C76.7414 61.5423 76.8536 61.6161 76.9774 61.6643C77.1013 61.7126 77.2339 61.7343 77.3666 61.7281C77.6983 61.7061 78.0198 61.6044 78.3039 61.4318V62.2129C77.9563 62.3769 77.5784 62.4668 77.1942 62.4768C76.9703 62.4904 76.746 62.4572 76.5356 62.3793C76.3253 62.3015 76.1334 62.1806 75.9723 62.0246C75.8111 61.8685 75.6842 61.6806 75.5997 61.4728C75.5152 61.265 75.4748 61.0419 75.4812 60.8177V57.3809H74.4038V56.6698H75.4812V55.0537H76.3754L76.3539 56.6698Z" fill="white"/>
<path d="M79.6344 56.6698H80.5287V57.3486C80.7152 57.1069 80.952 56.9085 81.2226 56.7672C81.4932 56.6258 81.7913 56.5448 82.0963 56.5298C82.2786 56.5324 82.4598 56.5596 82.6349 56.6106V57.4294C82.4395 57.3693 82.2361 57.3384 82.0316 57.3378C81.7271 57.3568 81.4313 57.4465 81.1675 57.5998C80.9038 57.7532 80.6795 57.966 80.5125 58.2213V62.3369H79.6183L79.6344 56.6698Z" fill="white"/>
<path d="M84.3426 54.4668C84.4904 54.4668 84.6323 54.5255 84.7368 54.6301C84.8414 54.7347 84.9001 54.8765 84.9001 55.0243C84.9001 55.1722 84.8414 55.314 84.7368 55.4186C84.6323 55.5231 84.4904 55.5819 84.3426 55.5819C84.1947 55.5819 84.0529 55.5231 83.9483 55.4186C83.8438 55.314 83.785 55.1722 83.785 55.0243C83.785 54.8765 83.8438 54.7347 83.9483 54.6301C84.0529 54.5255 84.1947 54.4668 84.3426 54.4668ZM83.9009 56.67H84.7951V62.337H83.9009V56.67Z" fill="white"/>
<path d="M88.9699 56.5298C89.5323 56.5343 90.0859 56.6709 90.5859 56.9284V57.7688C90.145 57.4539 89.6193 57.2793 89.0776 57.2678C87.9194 57.2678 87.0899 58.1889 87.0899 59.4926C87.0899 60.7962 87.9194 61.7174 89.0776 61.7174C89.6108 61.7048 90.1283 61.5342 90.5644 61.2272V62.0675C90.0643 62.3251 89.5108 62.4616 88.9483 62.4661C87.3323 62.4661 86.1687 61.2272 86.1687 59.4926C86.1687 57.758 87.3376 56.5298 88.9699 56.5298Z" fill="white"/>
<path d="M95.1487 61.7501C94.6549 62.2029 94.0138 62.4612 93.3441 62.4774C93.1195 62.4984 92.893 62.4722 92.6792 62.4005C92.4654 62.3288 92.2689 62.2131 92.1025 62.0609C91.9361 61.9086 91.8034 61.7233 91.7129 61.5167C91.6224 61.3101 91.5762 61.0868 91.5772 60.8613C91.5772 59.7139 92.6545 58.9059 94.2706 58.9059C94.5777 58.9059 94.8739 58.9059 95.1541 58.9436V58.4534C95.1547 58.2866 95.1205 58.1216 95.0539 57.9687C94.9872 57.8159 94.8894 57.6786 94.7668 57.5656C94.6442 57.4526 94.4994 57.3664 94.3416 57.3124C94.1839 57.2584 94.0166 57.2379 93.8504 57.2521C93.2239 57.2685 92.6121 57.4446 92.0727 57.7638V56.9774C92.6566 56.6969 93.2943 56.5462 93.942 56.5356C94.2077 56.5116 94.4755 56.5434 94.7282 56.629C94.9808 56.7146 95.2128 56.8521 95.4091 57.0328C95.6055 57.2134 95.7618 57.4331 95.8682 57.6777C95.9746 57.9224 96.0286 58.1866 96.0267 58.4534V62.3427H95.1541L95.1487 61.7501ZM93.5865 61.7501C93.8848 61.731 94.1764 61.6531 94.4445 61.5209C94.7126 61.3887 94.9519 61.2048 95.1487 60.9798V59.5415C94.87 59.5058 94.5892 59.4896 94.3083 59.493C93.2309 59.493 92.4822 60.0048 92.4822 60.7428C92.4817 60.8841 92.5105 61.0239 92.567 61.1534C92.6235 61.2829 92.7063 61.3992 92.8102 61.495C92.914 61.5907 93.0367 61.6638 93.1703 61.7096C93.304 61.7554 93.4457 61.7729 93.5865 61.7609V61.7501Z" fill="white"/>
<path d="M100.843 54.5366H105.303V55.2854H101.764V58.0058H104.861V58.7438H101.764V61.5773H105.395V62.3207H100.843V54.5366Z" fill="white"/>
<path d="M106.887 54.1865H107.786V62.3369H106.887V54.1865Z" fill="white"/>
<path d="M115.818 54.397C116.572 54.4069 117.313 54.603 117.973 54.968V55.8622C117.374 55.4405 116.664 55.2045 115.931 55.1835C114.24 55.1835 113.071 56.5302 113.071 58.4156C113.071 60.301 114.24 61.6477 115.931 61.6477C116.664 61.6267 117.374 61.3907 117.973 60.969V61.8686C117.309 62.22 116.569 62.4049 115.818 62.4073C113.636 62.4073 112.107 60.7266 112.107 58.3671C112.107 56.0077 113.636 54.397 115.818 54.397Z" fill="white"/>
<path d="M122.573 61.7501C122.081 62.2016 121.442 62.4599 120.774 62.4773C120.549 62.4992 120.322 62.4736 120.108 62.4022C119.893 62.3309 119.696 62.2153 119.529 62.063C119.362 61.9107 119.229 61.725 119.138 61.518C119.047 61.311 119.001 61.0873 119.002 60.8613C119.002 59.7139 120.079 58.9058 121.695 58.9058C122.002 58.9058 122.299 58.9058 122.579 58.9435V58.4533C122.579 58.2866 122.545 58.1215 122.479 57.9687C122.412 57.8159 122.314 57.6786 122.192 57.5656C122.069 57.4526 121.924 57.3663 121.766 57.3124C121.609 57.2584 121.441 57.2378 121.275 57.2521C120.649 57.2685 120.037 57.4446 119.497 57.7638V56.9773C120.082 56.6975 120.719 56.5469 121.367 56.5356C121.633 56.5116 121.901 56.5434 122.154 56.629C122.407 56.7145 122.639 56.852 122.836 57.0325C123.032 57.213 123.189 57.4327 123.296 57.6773C123.403 57.922 123.458 58.1863 123.457 58.4533V62.3427H122.579L122.573 61.7501ZM121.011 61.7501C121.309 61.731 121.601 61.6531 121.869 61.5209C122.137 61.3887 122.377 61.2048 122.573 60.9798V59.5415C122.297 59.5059 122.018 59.4897 121.738 59.493C120.661 59.493 119.912 60.0048 119.912 60.7428C119.911 60.8838 119.939 61.0235 119.995 61.153C120.051 61.2825 120.133 61.3989 120.237 61.4947C120.34 61.5906 120.462 61.6638 120.596 61.7096C120.729 61.7554 120.871 61.7729 121.011 61.7609V61.7501Z" fill="white"/>
<path d="M125.208 56.6698H126.102V57.3486C126.288 57.1069 126.525 56.9085 126.796 56.7672C127.066 56.6258 127.364 56.5448 127.669 56.5298C127.852 56.5328 128.033 56.56 128.208 56.6106V57.4294C128.013 57.3693 127.809 57.3384 127.605 57.3378C127.3 57.3568 127.004 57.4465 126.741 57.5998C126.477 57.7532 126.253 57.966 126.086 58.2213V62.3369H125.191L125.208 56.6698Z" fill="white"/>
<path d="M129.479 56.6699H130.374V57.2678C130.842 56.8194 131.46 56.5603 132.108 56.5406C132.434 56.5231 132.758 56.597 133.043 56.7541C133.329 56.9112 133.565 57.1452 133.724 57.4295C134.231 56.8869 134.932 56.5673 135.674 56.5406C135.921 56.5334 136.167 56.5777 136.396 56.6707C136.624 56.7637 136.831 56.9034 137.003 57.0808C137.175 57.2581 137.308 57.4694 137.393 57.701C137.479 57.9326 137.516 58.1795 137.5 58.426V62.3477H136.595V58.5769C136.607 58.4191 136.586 58.2606 136.534 58.1113C136.482 57.9619 136.399 57.8251 136.291 57.7092C136.184 57.5934 136.053 57.501 135.908 57.4381C135.763 57.3751 135.606 57.3428 135.448 57.3433C135.157 57.3645 134.873 57.4446 134.614 57.5789C134.354 57.7132 134.125 57.8988 133.94 58.1244V62.3746H133.035V58.6038C133.046 58.4453 133.024 58.2862 132.971 58.1365C132.918 57.9868 132.834 57.8497 132.725 57.7339C132.616 57.6181 132.485 57.526 132.339 57.4634C132.193 57.4008 132.035 57.3691 131.877 57.3702C131.585 57.3914 131.301 57.4716 131.042 57.6059C130.783 57.7401 130.554 57.9257 130.368 58.1513V62.4016H129.479V56.6699Z" fill="white"/>
<path d="M141.46 56.5298C142.855 56.5298 143.776 57.6772 143.776 59.3094C143.776 59.4495 143.776 59.5734 143.776 59.708H139.714C139.705 59.9747 139.75 60.2404 139.845 60.4895C139.941 60.7385 140.086 60.9656 140.272 61.1572C140.457 61.3489 140.68 61.5011 140.925 61.6047C141.171 61.7084 141.435 61.7613 141.702 61.7605C142.296 61.739 142.873 61.5525 143.367 61.2218V62.0406C142.814 62.3235 142.204 62.4747 141.584 62.4823C139.968 62.4823 138.809 61.2325 138.809 59.4656C138.809 57.6987 139.93 56.5298 141.46 56.5298ZM142.887 59.0724C142.887 57.995 142.279 57.2462 141.427 57.2462C140.485 57.2462 139.811 57.9842 139.736 59.0724H142.887Z" fill="white"/>
<path d="M145.101 56.67H145.996V57.268C146.481 56.7974 147.125 56.5263 147.8 56.5084C148.064 56.4977 148.326 56.5418 148.572 56.6381C148.817 56.7343 149.04 56.8805 149.226 57.0675C149.412 57.2544 149.557 57.4779 149.652 57.7239C149.747 57.9698 149.789 58.2328 149.777 58.4962V62.3155H148.872V58.6201C148.883 58.4455 148.857 58.2707 148.796 58.1068C148.735 57.9428 148.641 57.7932 148.52 57.6676C148.398 57.5419 148.252 57.443 148.09 57.377C147.928 57.3109 147.754 57.2793 147.579 57.2841C147.274 57.2985 146.976 57.3775 146.704 57.5158C146.432 57.6542 146.192 57.8488 146.001 58.0868V62.3155H145.101V56.67Z" fill="white"/>
<path d="M154.615 54.5366H159.075V55.2854H155.536V58.0058H158.633V58.7438H155.536V61.5773H159.166V62.3207H154.615V54.5366Z" fill="white"/>
<path d="M160.573 56.67H161.467V57.268C161.952 56.7974 162.596 56.5263 163.271 56.5084C163.535 56.4976 163.797 56.5418 164.042 56.6381C164.287 56.7344 164.51 56.8807 164.695 57.0677C164.881 57.2547 165.025 57.4783 165.12 57.7243C165.214 57.9702 165.256 58.2331 165.243 58.4962V62.3155H164.338V58.6201C164.348 58.4456 164.323 58.2708 164.262 58.1068C164.201 57.9428 164.107 57.7932 163.986 57.6676C163.864 57.542 163.718 57.443 163.556 57.377C163.394 57.311 163.22 57.2793 163.045 57.2841C162.74 57.2985 162.442 57.3775 162.17 57.5158C161.898 57.6542 161.658 57.8488 161.467 58.0868V62.3155H160.573V56.67Z" fill="white"/>
<path d="M169.213 56.5298C170.608 56.5298 171.529 57.6772 171.529 59.3094C171.529 59.4495 171.529 59.5734 171.529 59.708H167.5C167.491 59.9747 167.535 60.2404 167.631 60.4895C167.727 60.7385 167.872 60.9656 168.057 61.1572C168.243 61.3489 168.465 61.5011 168.711 61.6047C168.957 61.7084 169.221 61.7613 169.488 61.7605C170.082 61.7396 170.658 61.553 171.152 61.2218V62.0406C170.602 62.3229 169.993 62.4741 169.375 62.4823C167.759 62.4823 166.595 61.2325 166.595 59.4656C166.595 57.6987 167.683 56.5298 169.213 56.5298ZM170.646 59.0724C170.646 57.995 170.032 57.2462 169.181 57.2462C168.238 57.2462 167.565 57.9842 167.489 59.0724H170.646Z" fill="white"/>
<path d="M172.876 56.6698H173.776V57.3486C173.961 57.107 174.197 56.9087 174.467 56.7673C174.736 56.6259 175.034 56.5449 175.338 56.5298C175.52 56.5329 175.701 56.56 175.877 56.6106V57.4294C175.681 57.3693 175.478 57.3384 175.273 57.3378C174.969 57.3568 174.673 57.4465 174.409 57.5998C174.145 57.7532 173.921 57.966 173.754 58.2213V62.3369H172.854L172.876 56.6698Z" fill="white"/>
<path d="M181.592 62.4284C181.599 62.7715 181.534 63.1121 181.403 63.4291C181.271 63.746 181.076 64.0324 180.828 64.2701C180.581 64.5079 180.287 64.6919 179.965 64.8107C179.643 64.9294 179.3 64.9804 178.958 64.9603C178.306 64.954 177.663 64.807 177.072 64.5293V63.6997C177.619 64.028 178.24 64.2132 178.877 64.2384C179.118 64.2492 179.358 64.2096 179.583 64.1221C179.807 64.0345 180.011 63.901 180.181 63.73C180.351 63.5591 180.483 63.3545 180.569 63.1294C180.656 62.9044 180.694 62.6637 180.682 62.423V61.8359C180.245 62.2489 179.667 62.4801 179.066 62.4823C177.568 62.4823 176.523 61.2541 176.523 59.5087C176.523 57.7634 177.568 56.5352 179.066 56.5352C179.665 56.5387 180.241 56.7653 180.682 57.1708V56.6752H181.592V62.4284ZM179.227 61.7173C179.503 61.7067 179.774 61.6407 180.024 61.5232C180.274 61.4056 180.498 61.239 180.682 61.0332V57.9735C180.498 57.7677 180.274 57.601 180.024 57.4835C179.774 57.366 179.503 57.2999 179.227 57.2893C178.188 57.2893 177.46 58.1997 177.46 59.5033C177.46 60.807 178.188 61.7173 179.227 61.7173Z" fill="white"/>
<path d="M184.426 54.1865H185.363L184.038 55.8618H183.267L184.426 54.1865ZM183.402 56.6699H184.302V62.3369H183.402V56.6699Z" fill="white"/>
<path d="M189.274 61.7501C188.78 62.2028 188.139 62.4612 187.469 62.4773C187.245 62.4984 187.018 62.4722 186.804 62.4005C186.591 62.3287 186.394 62.213 186.228 62.0608C186.061 61.9086 185.929 61.7232 185.838 61.5166C185.748 61.3101 185.701 61.0868 185.702 60.8613C185.702 59.7139 186.78 58.9058 188.396 58.9058C188.698 58.9058 188.994 58.9058 189.279 58.9435V58.4533C189.28 58.2866 189.246 58.1215 189.179 57.9687C189.112 57.8159 189.015 57.6786 188.892 57.5656C188.769 57.4526 188.625 57.3663 188.467 57.3124C188.309 57.2584 188.142 57.2378 187.976 57.2521C187.347 57.2683 186.734 57.4444 186.193 57.7638V56.9773C186.777 56.698 187.414 56.5474 188.062 56.5356C188.328 56.5116 188.596 56.5434 188.849 56.629C189.102 56.7145 189.334 56.852 189.531 57.0325C189.728 57.213 189.884 57.4327 189.991 57.6773C190.098 57.922 190.153 58.1863 190.152 58.4533V62.3427H189.274V61.7501ZM187.706 61.7501C188.31 61.7106 188.874 61.4336 189.274 60.9798V59.5415C188.995 59.5059 188.714 59.4897 188.434 59.493C187.356 59.493 186.607 60.0048 186.607 60.7428C186.606 60.8823 186.634 61.0206 186.689 61.1489C186.744 61.2772 186.825 61.3928 186.926 61.4884C187.028 61.584 187.148 61.6575 187.28 61.7044C187.411 61.7513 187.551 61.7705 187.69 61.7609L187.706 61.7501Z" fill="white"/>
</svg>
