<svg width="182" height="172" viewBox="0 0 182 172" fill="none" xmlns="http://www.w3.org/2000/svg">
<rect x="66.2441" y="0.5" width="115" height="171" rx="3.5" stroke="black"/>
<line x1="83.7441" y1="38.5" x2="166.744" y2="38.5" stroke="black"/>
<line x1="83.7441" y1="67.5" x2="166.744" y2="67.5" stroke="black"/>
<line x1="83.7441" y1="96.5" x2="166.744" y2="96.5" stroke="black"/>
<line x1="83.7441" y1="125.5" x2="166.744" y2="125.5" stroke="black"/>
<line x1="83.7441" y1="154.5" x2="166.744" y2="154.5" stroke="black"/>
<path fill-rule="evenodd" clip-rule="evenodd" d="M87.5233 141.314C87.5233 147.132 82.7649 151.891 76.9466 151.891L36.6399 151.891C30.8215 151.891 26.0632 147.132 26.0632 141.314L26.0632 91.4305L10.5412 91.4305C1.11919 91.4305 -3.52336 80.0032 3.13402 73.3458L49.386 27.0938C53.5112 22.9687 60.1761 22.9687 64.3012 27.0938L110.553 73.3458C117.218 80.0108 112.457 91.4305 103.045 91.4305L87.5233 91.4305L87.5233 141.314ZM76.9466 150.891C82.2126 150.891 86.5233 146.58 86.5233 141.314L86.5233 90.9305L86.5233 90.4305L87.0233 90.4305L103.045 90.4305C111.57 90.4305 115.878 80.0846 109.846 74.0529L63.5941 27.8009C59.8595 24.0663 53.8278 24.0663 50.0931 27.8009L3.84112 74.0529C-2.19812 80.0922 2.0268 90.4305 10.5412 90.4305L26.5632 90.4305L27.0632 90.4305L27.0632 90.9305L27.0632 141.314C27.0632 146.58 31.3738 150.891 36.6399 150.891L76.9466 150.891Z" fill="black"/>
</svg>
