<svg width="182" height="172" viewBox="0 0 182 172" fill="none" xmlns="http://www.w3.org/2000/svg">
<circle r="24.2229" transform="matrix(-1 0 0 1 53.6748 93)" stroke="black"/>
<line y1="-0.5" x2="24.0723" y2="-0.5" transform="matrix(4.37114e-08 -1 -1 -4.37114e-08 54 63.0723)" stroke="black"/>
<line y1="-0.5" x2="24.0723" y2="-0.5" transform="matrix(4.37114e-08 -1 -1 -4.37114e-08 54 147)" stroke="black"/>
<line y1="-0.5" x2="24.0723" y2="-0.5" transform="matrix(-1 0 0 1 24.0723 93.0005)" stroke="black"/>
<line y1="-0.5" x2="24.0723" y2="-0.5" transform="matrix(-1 0 0 1 108 93.0005)" stroke="black"/>
<line y1="-0.5" x2="24.0723" y2="-0.5" transform="matrix(-0.707107 -0.707107 -0.707107 0.707107 32.8379 71.8379)" stroke="black"/>
<line y1="-0.5" x2="24.0723" y2="-0.5" transform="matrix(-0.707107 -0.707107 -0.707107 0.707107 92.1838 131.184)" stroke="black"/>
<line y1="-0.5" x2="24.0723" y2="-0.5" transform="matrix(-0.707107 0.707107 0.707107 0.707107 32.8379 114.162)" stroke="black"/>
<line y1="-0.5" x2="24.0723" y2="-0.5" transform="matrix(-0.707107 0.707107 0.707107 0.707107 92.1838 54.8167)" stroke="black"/>
<rect x="66.5" y="0.5" width="115" height="171" rx="3.5" stroke="black"/>
<line x1="84" y1="38.5" x2="167" y2="38.5" stroke="black"/>
<line x1="84" y1="67.5" x2="167" y2="67.5" stroke="black"/>
<line x1="84" y1="96.5" x2="167" y2="96.5" stroke="black"/>
<line x1="84" y1="125.5" x2="167" y2="125.5" stroke="black"/>
<line x1="84" y1="154.5" x2="167" y2="154.5" stroke="black"/>
</svg>
