<svg width="179" height="172" viewBox="0 0 179 172" fill="none" xmlns="http://www.w3.org/2000/svg">
  <path
    d="M124.196 107.664C154.089 107.664 178.323 83.5628 178.323 53.8321C178.323 24.1015 154.089 0 124.196 0C94.3019 0 70.0682 24.1015 70.0682 53.8321C70.0682 83.5628 94.3019 107.664 124.196 107.664Z"
    fill="#009845" />
  <path
    d="M171.755 61.879C171.755 91.331 147.747 115.211 118.127 115.211C88.5072 115.211 64.5 91.331 64.5 61.879C64.5 32.4271 88.5072 8.54688 118.127 8.54688C147.747 8.54688 171.755 32.4271 171.755 61.879Z"
    stroke="black" />
  <path
    d="M116.302 79.3388L116.274 78.3263C119.823 78.214 123.109 77.9258 125.628 76.0955L125.628 76.0957L125.638 76.0876C126.402 75.5012 127.03 74.758 127.479 73.9083C127.927 73.0605 128.187 72.1267 128.241 71.1701C128.29 70.5534 128.196 69.9337 127.965 69.3591C127.734 68.7824 127.373 68.2668 126.909 67.8521L126.904 67.8469L126.898 67.8419C125.943 67.0403 124.725 66.7918 123.532 66.8446C122.339 66.8975 121.125 67.2523 120.11 67.7148L120.318 68.1698L120.11 67.7148L119.263 68.1011L122.281 46.1698L123.294 46.3078L120.632 65.6538L120.527 66.4185L121.268 66.2018C123.794 65.4631 126.048 65.8032 127.557 67.0687C128.14 67.5757 128.597 68.2095 128.893 68.9206C129.19 69.633 129.317 70.4038 129.264 71.1729L129.264 71.1729L129.264 71.1822C129.208 72.3003 128.908 73.3929 128.383 74.3835C127.859 75.3727 127.124 76.2364 126.229 76.914C123.322 79.0246 119.565 79.2416 116.302 79.3388Z"
    fill="#2F2E41" stroke="black" />
  <path d="M134.268 49.103V48.0913H144.162V49.103H134.268Z" fill="#2F2E41" stroke="black" />
  <path d="M99.882 49.103V48.0913H109.776V49.103H99.882Z" fill="#2F2E41" stroke="black" />
  <path
    d="M43.0023 166.477C63.959 166.477 80.9478 149.581 80.9478 128.739C80.9478 107.896 63.959 91 43.0023 91C22.0455 91 5.05676 107.896 5.05676 128.739C5.05676 149.581 22.0455 166.477 43.0023 166.477Z"
    fill="#009845" />
  <path
    d="M75.391 133.768C75.391 154.332 58.6287 171.006 37.9455 171.006C17.2623 171.006 0.5 154.332 0.5 133.768C0.5 113.204 17.2623 96.5293 37.9455 96.5293C58.6287 96.5293 75.391 113.204 75.391 133.768Z"
    stroke="black" />
  <path
    d="M64.7643 147.724L64.7249 146.313C67.3629 146.24 69.6886 146.076 71.4362 144.806C71.9316 144.426 72.3389 143.943 72.6302 143.392C72.9216 142.841 73.0902 142.234 73.1246 141.613C73.1553 141.233 73.0975 140.851 72.9558 140.497C72.814 140.143 72.5921 139.827 72.3072 139.572C71.1475 138.597 69.2808 138.912 67.9199 139.533L66.7466 140.068L68.9966 123.716L70.4014 123.907L68.4876 137.817C70.3367 137.277 72.0493 137.509 73.2226 138.495C73.6731 138.886 74.0265 139.375 74.2553 139.925C74.4841 140.474 74.5821 141.069 74.5416 141.662C74.5002 142.498 74.2756 143.314 73.8837 144.053C73.4917 144.793 72.9418 145.439 72.2726 145.945C70.0272 147.577 67.1091 147.658 64.7643 147.724Z"
    fill="#2F2E41" />
  <path d="M60.88 125.106H53.2429V126.517H60.88V125.106Z" fill="#2F2E41" />
</svg>