<svg width="246" height="75" viewBox="0 0 246 75" fill="none" xmlns="http://www.w3.org/2000/svg">
<path d="M41.3313 10.6204C41.3834 18.9892 35.5857 25.4846 23.9384 30.1065C21.572 31.0575 17.4071 32.4198 11.4438 34.1934C9.57985 34.8158 8.02469 36.1332 7.09916 37.8738C6.84832 38.2875 6.03902 40.0397 4.67125 43.1305C3.83355 45.0206 2.93905 46.1761 1.97357 46.5969C0.657855 45.9645 0 45.0729 0 43.9222C0 42.9094 0.664955 41.4829 1.99486 39.6427C2.55806 38.8914 3.51882 37.5243 4.87712 35.5415C5.20842 35.0375 5.6178 33.1973 6.10528 30.0209C6.20966 28.9053 6.59573 27.8349 7.22694 26.9111L9.00173 28.2092C12.4235 22.8123 14.2598 19.9283 14.5107 19.5574C16.8061 15.5394 17.9443 12.4487 17.9254 10.2851C15.8978 11.5812 13.6577 12.506 11.309 13.0169V12.3036L10.7339 11.5904L11.2877 9.02981C13.1808 7.4131 16.6049 5.76072 21.5602 4.07269C26.397 2.475 30.1217 1.66664 32.7342 1.64762C35.3467 1.6286 37.4504 2.39654 39.0454 3.95144C40.5504 5.50158 41.3124 7.72455 41.3313 10.6204ZM38.1083 11.676C38.156 10.7598 37.9961 9.84474 37.6407 8.99966C37.2854 8.15458 36.7437 7.40156 36.0566 6.79732C34.6816 5.73286 32.9688 5.20573 31.2363 5.31375C29.5411 5.32468 27.8664 5.68646 26.3166 6.3765C24.7027 7.00273 23.3638 8.18616 22.5398 9.71453C21.9577 11.2766 21.3827 12.8243 20.8005 14.3436L15.9802 21.6829C14.3895 24.172 13.0505 26.8147 11.9834 29.5715L12.5584 30.2848H13.1263C16.9126 30.2848 21.8962 28.2306 28.0772 24.1223C34.7882 19.6383 38.132 15.4895 38.1083 11.676Z" fill="white"/>
<path d="M63.8427 30.5345L53.8968 27.1037C51.4499 27.1037 49.3202 28.9344 47.5075 32.5958C46.206 35.4455 45.0868 38.3758 44.1567 41.3688C42.5996 46.0002 40.0747 48.3278 36.5819 48.3516C36.7807 46.4686 37.8598 43.8581 39.8191 40.5058C41.9394 36.9062 43.2078 34.2553 43.6243 32.553C44.0394 30.2292 44.2556 27.874 44.2703 25.5132C44.3219 24.0491 44.6121 22.6034 45.1293 21.2336C45.8771 19.1604 46.7337 18.0739 47.6992 17.9741L48.8989 18.0383L49.5663 22.7172C49.8644 23.9155 50.8654 24.5075 52.5479 24.4932H54.6777C55.0539 24.4433 55.3876 24.4219 55.5651 24.4147C60.4209 24.3054 63.1801 26.3453 63.8427 30.5345Z" fill="white"/>
<path d="M103.449 33.1664C103.477 37.4887 100.638 40.8862 94.93 43.3588C90.5991 45.2299 85.9359 46.2004 81.2215 46.2118C71.1407 46.2784 66.0743 43.5989 66.0222 38.1734C66.0222 34.3171 69.2926 30.5487 75.8333 26.8683C81.6782 23.6159 86.6003 21.9754 90.5995 21.9469C94.1443 21.9469 97.081 22.8242 99.4096 24.5788C102.079 26.5854 103.425 29.4479 103.449 33.1664ZM99.9704 32.7812C99.9836 31.7132 99.6881 30.6643 99.1198 29.7616C98.5515 28.859 97.7348 28.1413 96.7687 27.6957C94.9261 26.7658 92.8802 26.3169 90.8196 26.3904C87.0334 26.419 83.0981 27.5958 79.0137 29.921C74.7542 32.2986 71.6968 35.1896 69.8416 38.5942C71.1219 40.0837 72.7098 41.275 74.4949 42.0855C76.2799 42.896 78.2192 43.3062 80.1779 43.2874C84.2239 43.2175 88.2247 42.4204 91.9909 40.9337C97.3295 38.8462 99.9893 36.1383 99.9704 32.8097V32.7812ZM96.8752 14.6003C94.239 17.4534 92.5825 18.8656 91.9058 18.8371C91.32 18.7992 90.7533 18.6127 90.2587 18.295C90.131 18.2023 89.6269 17.8884 88.7324 17.3392L89.1726 16.3692C89.6458 15.3136 91.1911 13.2594 93.8083 10.2067L96.5486 7.01844C97.8643 5.66801 99.0073 4.9928 99.9775 4.9928C101.241 4.9928 101.873 5.64899 101.887 6.98278C101.901 8.31656 100.226 10.9413 96.8752 14.6003Z" fill="white"/>
<path d="M139.364 23.4162C139.25 25.0709 138.164 26.5497 136.105 27.8526C134.846 28.5516 132.998 29.6667 130.561 31.1978C128.587 32.4959 127.607 34.0009 127.622 35.6984C127.685 37.3693 128.016 39.019 128.601 40.5842C130.054 44.8067 130.788 47.5599 130.802 48.8437L130.625 50.4343C130.497 50.2488 129.153 47.6145 126.592 42.5314C124.756 38.8653 122.889 37.0393 120.991 37.0536C119.6 37.0536 117.624 37.938 115.063 39.7069L106.686 45.4843C105.875 45.3853 105.085 45.1591 104.344 44.8138V44.1006C104.344 42.8595 105.683 41.5875 108.362 40.2847L115.929 36.7184C118.627 35.387 119.976 34.0532 119.976 32.717C119.976 30.9719 118.114 28.1569 114.389 24.2721C110.664 20.3872 108.807 18.2855 108.816 17.9669C108.862 17.3466 109.138 16.7662 109.59 16.3407C109.763 16.1001 109.985 15.8984 110.24 15.7486C110.496 15.5988 110.78 15.5041 111.074 15.4705C112.091 15.4705 113.575 16.7924 115.525 19.4362C116.504 20.8104 118.291 23.2807 120.885 26.8469C122.844 29.5002 124.181 30.8245 124.896 30.8198C126.457 30.8198 128.727 29.6548 131.704 27.3248C132.456 26.7685 134.617 25.0329 138.185 22.1181H138.817L139.364 23.4162Z" fill="white"/>
<path d="M150.765 25.8912C150.765 26.6282 149.608 30.2896 147.293 36.8753C147.002 37.7027 146.583 38.9295 145.987 40.5414C145.837 41.045 145.588 41.513 145.253 41.9174C144.919 42.3219 144.507 42.6544 144.042 42.8951C143.116 43.1389 142.158 43.2375 141.202 43.1876C141.186 42.7246 141.129 42.264 141.032 41.811C140.94 41.3574 140.885 40.897 140.869 40.4344C140.922 39.2463 141.284 38.093 141.919 37.0893C142.519 36.0816 143.062 35.041 143.545 33.9723C143.872 32.8264 144.511 30.8007 145.462 27.8954C146.128 25.9197 147.295 24.1523 148.848 22.7671C150.121 24.1128 150.76 25.1541 150.765 25.8912ZM156.579 6.89719C156.579 8.55194 155.585 9.37931 153.562 9.39358C151.707 9.39358 150.774 8.57334 150.765 6.93285C150.828 5.75285 151.067 4.58908 151.475 3.4807C151.86 2.40978 152.115 1.29623 152.234 0.164062C152.66 0.444609 153.472 1.74987 154.669 4.07983C155.023 4.51585 155.405 4.92805 155.812 5.31376C156.042 5.51057 156.228 5.75276 156.36 6.0252C156.492 6.29764 156.566 6.59448 156.579 6.89719Z" fill="white"/>
<path d="M208.673 23.8512C208.6 26.5017 207.807 29.0817 206.38 31.3119C205.594 32.6528 204.411 34.6832 202.83 37.4031C200.913 40.822 199.967 43.0116 199.99 43.9722C200.057 44.7601 200.169 45.5435 200.324 46.3188C200.408 46.7897 200.453 47.2668 200.459 47.7453C200.459 48.7581 199.884 49.5213 198.705 50.0348C196.888 49.5593 195.972 47.9569 195.958 45.2275C195.958 42.8833 196.763 40.2347 198.372 37.2818C201.879 30.8768 203.627 26.7708 203.618 24.9639C201.053 25.8056 197.693 27.6648 193.537 30.5416C191.526 31.9681 188.506 34.1079 184.479 36.9609C179.746 40.2133 176.762 41.8419 175.527 41.8467L174.575 41.647C174.656 40.6341 176.454 38.2566 179.971 34.5144C181.4 33.1306 182.229 31.2369 182.278 29.2435C182.266 28.5128 182.132 27.7894 181.88 27.1037C181.838 27.011 181.54 26.3262 180.986 25.0424C178.383 26.4689 175.385 28.9938 171.991 32.6171L163.827 41.3688C161.144 44.2218 158.96 45.6483 157.275 45.6483V44.4643C157.275 43.2232 159.426 39.9447 163.728 34.6285C166.113 31.7184 167.526 29.7356 167.987 28.6728C168.981 26.4618 170.117 25.2849 171.317 25.1066C172.155 25.0067 174.634 23.9107 178.757 21.8185C180.603 20.8841 181.909 20.392 182.668 20.392C184.438 20.392 185.778 22.0824 186.686 25.4632C186.857 26.1099 187.16 27.5102 187.595 29.6643C189.28 28.5944 192.326 26.7138 196.732 24.0224C200.882 21.5118 204.034 20.2493 206.188 20.235C207.828 20.2778 208.658 21.4618 208.673 23.8512Z" fill="white"/>
<path d="M241.322 45.6983C240.404 47.9094 239.315 49.0197 238.056 49.0292C236.636 49.0292 235.046 47.8903 233.285 45.6127C231.937 43.8914 230.82 41.9993 229.963 39.9851C226.432 41.8443 224.038 43.0545 222.779 43.6156C219.669 44.9708 217.166 45.6483 215.268 45.6483C211.955 45.6483 210.277 43.8224 210.235 40.1705C210.168 34.2553 213.084 28.9487 218.981 24.2507C221.441 22.3865 224.054 20.7331 226.79 19.3079C230.704 17.2109 233.48 16.1576 235.117 16.1481C236.262 16.1481 237.341 16.8091 238.354 18.131C239.289 19.227 239.834 20.6049 239.902 22.0467C239.902 24.5764 239.005 27.9049 237.211 32.0323C235.418 36.1597 234.518 38.5372 234.514 39.1649C234.514 41.3759 234.838 42.8904 235.486 43.7083C235.997 44.412 237.943 45.0754 241.322 45.6983ZM238.887 22.4105C238.887 20.7558 237.566 19.9426 234.954 19.9569C231.12 19.9854 227.945 20.9483 225.427 22.8456C222.741 24.9363 220.295 27.3215 218.136 29.9567C214.955 33.7037 213.372 36.6542 213.387 38.8082C213.365 39.3928 213.495 39.9731 213.763 40.4921C214.032 41.011 214.431 41.4508 214.92 41.7682C215.886 42.3813 217.015 42.6848 218.157 42.6384C219.936 42.6415 221.695 42.261 223.316 41.5228C224.936 40.7845 226.38 39.7056 227.549 38.3589C228.174 37.6694 229.949 35.0161 232.874 30.399C234.663 27.5459 236.423 26.1194 238.092 26.0838C238.607 24.9278 238.877 23.677 238.887 22.4105ZM241.137 47.0749V46.868H241.265V46.654H241.137V46.2403H241.371V46.3616H241.244V46.4971H241.371V47.0749H241.137Z" fill="white"/>
<path d="M119.181 61.0689L113.374 62.0532C111.954 62.2885 111.031 62.424 110.534 62.4668C109.405 62.581 107.9 62.6452 106.026 62.6452C104.709 62.6786 103.395 62.498 102.136 62.1102C101.369 61.8132 100.636 61.4355 99.9491 60.9833L98.7848 61.4112C98.4055 61.5461 98.0193 61.6604 97.6277 61.7536C97.5081 61.7969 97.3792 61.8072 97.2543 61.7834C97.1294 61.7595 97.0132 61.7024 96.9178 61.6181C96.8297 61.5494 96.7579 61.462 96.7076 61.3621C96.6572 61.2622 96.6296 61.1523 96.6267 61.0403C96.6267 60.862 96.7048 60.7622 96.8539 60.7408C97.1804 60.6623 97.507 60.5767 97.8336 60.4769L99.4025 59.9705C99.1612 59.6545 98.9916 59.2893 98.9055 58.9006C98.8163 58.4905 98.7711 58.0721 98.7707 57.6524C98.7874 57.1179 98.943 56.5971 99.222 56.1417C99.5009 55.6863 99.8935 55.312 100.361 55.0561C101.34 54.3756 102.5 54.0077 103.69 54.0005C104.563 53.9809 105.426 54.195 106.189 54.621C106.564 54.8096 106.879 55.0988 107.099 55.4564C107.32 55.814 107.437 56.226 107.439 56.6467C107.439 57.3171 106.665 58.0779 105.117 58.9291C104.464 59.2857 103.421 59.7921 101.987 60.4483C102.532 60.7829 103.119 61.042 103.733 61.2186C104.59 61.4625 105.476 61.5826 106.367 61.5753C108.241 61.5753 109.512 61.5753 110.165 61.4968C111.238 61.3883 112.304 61.2217 113.359 60.9975L116.377 60.4127C117.207 60.2557 117.896 60.1488 118.428 60.0917C118.799 60.0216 119.181 60.0412 119.543 60.1488C119.813 60.2486 119.947 60.377 119.947 60.5339C119.976 60.7836 119.713 60.9476 119.181 61.0689ZM105.508 56.554C105.462 56.1794 105.271 55.8384 104.975 55.6053C104.557 55.3261 104.055 55.2002 103.555 55.2487C102.808 55.2387 102.08 55.4909 101.497 55.962C101.244 56.1409 101.036 56.3765 100.889 56.6501C100.743 56.9236 100.662 57.2277 100.652 57.5382C100.652 57.8949 100.652 58.2372 100.652 58.5653C100.678 58.918 100.829 59.2495 101.078 59.4997C102.188 59.0924 103.257 58.5814 104.273 57.9733C105.117 57.4313 105.508 56.9676 105.508 56.554Z" fill="white"/>
<path d="M142.367 61.7251C142.367 62.1388 141.458 62.3456 139.641 62.3456C138.691 62.3553 137.758 62.0877 136.957 61.5753L135.8 60.7979C135.558 60.6623 134.991 60.2772 134.103 59.6424C133.759 59.3536 133.341 59.1682 132.896 59.1074C132.181 59.1803 131.483 59.3808 130.838 59.6994C130.419 59.8778 129.915 60.1203 129.318 60.4127L126.954 61.6609C125.968 62.16 124.885 62.4352 123.781 62.4669C123.023 62.4463 122.281 62.2408 121.619 61.868C120.957 61.4952 120.396 60.9664 119.983 60.3271C119.116 59.2789 118.617 57.9729 118.563 56.6111C118.563 56.4755 118.663 56.3186 118.875 56.1546C119.077 55.9873 119.325 55.8875 119.585 55.8693C119.815 55.8465 120.046 55.9045 120.239 56.0333C120.509 56.3083 120.668 56.6742 120.686 57.0604C120.882 57.8579 121.231 58.6091 121.715 59.2715C122.458 60.4412 123.232 61.0261 124.037 61.0261C124.544 61.0046 125.044 60.8935 125.513 60.698C125.513 60.698 126.393 60.2487 128.062 59.4213C129.482 58.708 130.412 58.2515 130.738 58.116C131.45 57.7543 132.223 57.5316 133.017 57.4598C133.585 57.4598 134.437 57.8664 135.473 58.6795C136.024 59.137 136.611 59.5496 137.227 59.9134C137.852 60.3342 138.313 60.6267 138.611 60.805C139.009 61.0849 139.47 61.2591 139.953 61.3114H140.755C141.152 61.3048 141.548 61.331 141.941 61.3899C142.225 61.4374 142.367 61.5492 142.367 61.7251Z" fill="white"/>
<path d="M168.719 61.0689L162.911 62.0532C161.492 62.2885 160.576 62.4241 160.072 62.4669C158.936 62.581 157.438 62.6452 155.557 62.6452C154.242 62.6787 152.931 62.4981 151.674 62.1102C150.906 61.8162 150.173 61.4383 149.487 60.9833L148.323 61.4112C147.941 61.5471 147.553 61.6614 147.158 61.7536C147.039 61.7969 146.91 61.8072 146.785 61.7834C146.66 61.7596 146.544 61.7025 146.449 61.6181C146.358 61.5517 146.285 61.4647 146.234 61.3643C146.183 61.2639 146.157 61.1529 146.157 61.0404C146.157 60.862 146.228 60.7622 146.378 60.7408C146.704 60.6623 147.038 60.5767 147.364 60.4769L148.926 59.9705C148.684 59.6557 148.517 59.2899 148.436 58.9006C148.344 58.4911 148.298 58.0723 148.301 57.6524C148.317 57.1185 148.471 56.5979 148.749 56.1424C149.026 55.6869 149.418 55.3124 149.885 55.0561C150.863 54.3756 152.024 54.0077 153.214 54.0005C154.087 53.9802 154.95 54.1944 155.713 54.6211C156.089 54.808 156.406 55.0966 156.628 55.4544C156.85 55.8122 156.968 56.2251 156.969 56.6467C156.969 57.3172 156.193 58.078 154.641 58.9291C153.988 59.2857 152.947 59.7922 151.517 60.4484C152.086 60.7981 152.7 61.067 153.342 61.2472C154.201 61.4911 155.09 61.6112 155.983 61.6038C157.857 61.6038 159.121 61.6038 159.781 61.5254C160.852 61.4173 161.916 61.2506 162.968 61.0261L165.985 60.4412C166.823 60.2843 167.505 60.1773 168.044 60.1203C168.415 60.0505 168.797 60.07 169.159 60.1773C169.429 60.2772 169.563 60.4056 169.563 60.5625C169.528 60.7836 169.258 60.9476 168.719 61.0689ZM155.053 56.554C155.029 56.368 154.97 56.1885 154.877 56.0257C154.784 55.8629 154.661 55.7201 154.513 55.6054C154.095 55.3261 153.593 55.2002 153.093 55.2487C152.348 55.2392 151.622 55.4914 151.042 55.962C150.787 56.1398 150.578 56.3749 150.43 56.6486C150.282 56.9223 150.2 57.227 150.19 57.5383C150.19 57.8949 150.19 58.2373 150.19 58.5654C150.216 58.918 150.367 59.2496 150.616 59.4997C151.727 59.0954 152.797 58.5842 153.81 57.9734C154.655 57.4313 155.053 56.9677 155.053 56.554Z" fill="white"/>
<path d="M184.358 55.2202C184.366 55.4198 184.311 55.6168 184.202 55.7837C184.039 55.9514 183.828 56.0637 183.599 56.1046C182.702 56.325 181.791 56.4847 180.873 56.5825C179.864 56.7005 178.849 56.76 177.834 56.7608C177.358 56.7608 176.904 56.7608 176.471 56.7038C176.197 56.6747 175.921 56.6747 175.648 56.7038C175.136 56.8393 174.888 57.0176 174.888 57.2387C174.942 57.637 175.096 58.015 175.335 58.3371C175.515 58.5939 175.827 59.029 176.272 59.6424C176.53 59.9941 176.767 60.3609 176.982 60.7408C177.235 61.1325 177.389 61.5807 177.429 62.046C177.483 62.5108 177.356 62.9786 177.074 63.3513C176.935 63.4759 176.772 63.5715 176.595 63.6327C176.419 63.6939 176.232 63.7194 176.045 63.7079C175.304 63.7305 174.57 63.5584 173.915 63.2086C173.417 62.8616 172.947 62.4752 172.51 62.0532C172.006 61.6181 171.679 61.3399 171.53 61.2543C171.179 61.0442 170.774 60.9402 170.366 60.9547C170.031 60.9849 169.693 60.9284 169.386 60.7907C169.116 60.6623 168.981 60.4983 168.981 60.3057C168.985 60.2041 169.022 60.1065 169.086 60.0279C169.15 59.9493 169.238 59.894 169.336 59.8706C169.656 59.7739 169.989 59.7305 170.323 59.7422C171.002 59.7206 171.676 59.8624 172.29 60.1559C172.735 60.4209 173.153 60.7291 173.539 61.076C173.719 61.278 173.914 61.4664 174.121 61.6395C174.42 61.9378 174.816 62.1176 175.236 62.1459C175.506 62.1459 175.64 62.0389 175.64 61.8178C175.543 61.5018 175.383 61.2085 175.172 60.9547L174.462 59.9491C174.017 59.2929 173.691 58.8174 173.482 58.5226C173.194 58.1282 172.955 57.6993 172.772 57.2458C172.721 57.0865 172.716 56.9155 172.759 56.7536C172.802 56.5916 172.89 56.4455 173.014 56.3329C173.38 56.0542 173.801 55.8573 174.249 55.7551C174.48 55.687 174.718 55.6487 174.959 55.641C175.271 55.641 175.669 55.641 176.144 55.641C176.499 55.641 176.854 55.641 177.153 55.641H178.019C178.97 55.6508 179.921 55.5744 180.858 55.4128C181.661 55.2701 182.47 55.1061 183.272 54.9277C183.982 54.9206 184.323 54.9991 184.358 55.2202Z" fill="white"/>
<path d="M202.049 60.2986C201.848 60.1083 201.605 59.969 201.339 59.892C201.083 59.787 200.813 59.722 200.537 59.6994C200.152 59.7529 199.78 59.8736 199.437 60.0561L198.017 60.7693C197.506 60.969 196.995 61.1545 196.476 61.3185C195.949 61.4904 195.398 61.577 194.844 61.5753C193.721 61.6144 192.606 61.3897 191.585 60.9191C190.541 60.3842 190.016 59.7993 190.016 59.1645C190.016 57.9947 190.941 57.0152 192.792 56.2259C194.154 55.6065 195.628 55.2739 197.122 55.2487C197.856 55.2407 198.582 55.3915 199.252 55.6909C199.905 55.9905 200.232 56.2972 200.232 56.611C200.232 56.8678 200.168 57.0105 200.033 57.039C199.799 57.0803 199.561 57.0971 199.323 57.0889C199.022 57.0578 198.732 56.9551 198.478 56.7894C198.078 56.5795 197.631 56.4764 197.179 56.4898C196.014 56.4718 194.86 56.7231 193.807 57.2244C192.763 57.7237 192.245 58.2943 192.245 58.9291C192.241 59.1643 192.306 59.3954 192.433 59.5934C192.559 59.7915 192.741 59.9475 192.955 60.0418C193.511 60.3076 194.122 60.4348 194.737 60.4127C195.158 60.4086 195.576 60.3338 195.972 60.1916C196.398 60.0418 196.902 59.8635 197.463 59.6424C198.173 59.3071 198.684 59.0789 198.982 58.9291C199.427 58.7159 199.91 58.5946 200.402 58.5725C201.822 58.5725 202.859 58.922 203.483 59.6138C204.378 60.6623 204.974 61.4112 205.272 61.8535C205.584 62.3371 205.867 62.8397 206.117 63.3584C207.135 65.5315 208.043 67.6712 208.843 69.7777C209.417 71.0507 209.822 72.3935 210.05 73.772C210.061 73.9232 210.023 74.0738 209.942 74.2021C209.862 74.3303 209.743 74.4295 209.603 74.4852C209.139 74.6042 208.661 74.6547 208.183 74.635C206.879 74.5552 205.594 74.2911 204.364 73.8504C202.569 73.2671 200.814 72.5666 199.11 71.7534C197.29 70.9524 195.519 70.0426 193.807 69.0288C191.914 67.7592 190.967 66.473 190.967 65.1701C191.04 64.6787 191.233 64.2131 191.528 63.8149C191.641 63.5645 191.819 63.3487 192.042 63.1896C192.265 63.0305 192.526 62.9337 192.799 62.9091C193.012 62.9091 193.111 63.066 193.111 63.387C192.962 63.9362 192.827 64.4925 192.714 65.0488C192.714 65.6622 193.189 66.3969 194.134 67.2457C195.688 68.5287 197.398 69.6073 199.224 70.4553C200.731 71.1996 202.276 71.8638 203.852 72.4453C204.898 72.8916 206.003 73.1824 207.132 73.3083C207.608 73.3083 207.842 73.2085 207.892 73.0088C207.672 71.8996 207.344 70.8149 206.912 69.7706C206.252 67.9518 205.585 66.24 204.896 64.6352C204.46 63.6046 203.908 62.6281 203.249 61.7251C202.898 61.2097 202.496 60.7317 202.049 60.2986Z" fill="white"/>
<path d="M221.565 47.4315C221.565 47.6312 221.281 47.8594 220.72 48.1447C220.045 48.4314 219.388 48.7601 218.754 49.129C217.523 49.8784 216.338 50.7001 215.204 51.5897C214.04 52.5241 213.408 53.1446 213.301 53.4656C213.236 53.7354 213.099 53.9821 212.904 54.1789C212.723 54.3358 212.49 54.4174 212.251 54.4071C211.811 54.4071 211.583 54.1789 211.583 53.6938V53.3372C211.658 53.105 211.71 52.8661 211.74 52.624C211.782 52.2959 212.911 51.3472 215.112 49.7709C217.478 48.0877 219.341 47.246 220.699 47.246C220.923 47.2371 221.147 47.2563 221.366 47.3031C221.494 47.2674 221.565 47.3316 221.565 47.4315ZM217.412 61.3399C217.412 61.6609 217.341 61.8677 217.192 61.9676C216.957 62.0872 216.694 62.1391 216.432 62.1174C215.774 62.1174 215.164 61.6609 214.601 60.7479C214.09 60.0121 213.795 59.1473 213.749 58.2515C213.749 58.0376 213.749 57.7665 213.749 57.4527C213.745 57.3094 213.797 57.1702 213.894 57.065C213.991 56.9597 214.124 56.8966 214.267 56.8892C214.394 56.867 214.525 56.8755 214.648 56.9139C214.772 56.9523 214.884 57.0197 214.977 57.1103C215.23 57.4099 215.393 57.7763 215.445 58.1659C215.681 58.8556 216.047 59.4928 216.525 60.0418C216.867 60.4403 217.165 60.8756 217.412 61.3399Z" fill="white"/>
<path d="M245.198 63.0018C245.198 63.1825 245.028 63.3109 244.687 63.387C244.207 63.4757 243.719 63.5139 243.232 63.5011C242.807 63.4828 242.391 63.3786 242.008 63.1947C241.625 63.0109 241.283 62.7512 241.002 62.4312C240.64 62.0603 240.292 61.718 239.93 61.3043C239.689 61.1046 239.469 60.8977 239.22 60.6838C238.883 60.3547 238.44 60.1553 237.971 60.1203C237.594 60.1697 237.231 60.2907 236.899 60.4769L235.479 61.1545C235.032 61.3328 234.72 61.4612 234.535 61.5468C233.855 61.8083 233.134 61.9483 232.405 61.9605C230.99 62.0448 229.585 61.6806 228.387 60.9191C227.734 60.4413 227.407 59.9919 227.407 59.5568C227.407 58.3657 228.266 57.4171 229.999 56.6111C231.318 55.991 232.752 55.658 234.208 55.6339C234.96 55.6302 235.704 55.7807 236.395 56.0761C237.105 56.3757 237.424 56.661 237.424 56.9392C237.424 57.2173 237.368 57.3743 237.247 57.4171C237.013 57.4645 236.775 57.4837 236.537 57.4741C236.219 57.4478 235.912 57.345 235.643 57.1746C235.243 56.9704 234.799 56.8699 234.35 56.8821C233.227 56.8713 232.117 57.1305 231.113 57.6382C230.112 58.1446 229.615 58.7152 229.615 59.3428C229.618 59.5243 229.664 59.7024 229.749 59.8624C229.835 60.0225 229.957 60.1598 230.105 60.2629C230.737 60.6754 231.483 60.8752 232.235 60.8335C232.708 60.8221 233.176 60.7304 233.619 60.5625C234.048 60.4198 234.468 60.2507 234.876 60.0561C235.586 59.7209 236.047 59.4926 236.345 59.3428C236.789 59.1262 237.272 59.0047 237.765 58.9862C238.271 58.9819 238.775 59.0467 239.263 59.1788C239.825 59.3585 240.348 59.6441 240.804 60.0204C241.367 60.4736 241.864 61.0042 242.28 61.5967C242.727 62.1745 243.097 62.4598 243.395 62.4598C244.602 62.4954 245.198 62.6595 245.198 63.0018Z" fill="white"/>
</svg>
