<svg width="92" height="85" viewBox="0 0 92 85" fill="none" xmlns="http://www.w3.org/2000/svg">
<path d="M28.4109 7.94723C24.7406 5.70761 12.8708 2.59068 0 3.40379C12.4874 1.54933 23.7041 4.8303 29.4047 6.25681C41.0119 9.15976 44.1071 15.9428 44.1071 15.9428C44.1071 15.9428 41.2674 13.9814 42.1193 15.0726C42.9712 16.1639 42.7937 19.0455 42.7937 19.0455C42.7937 19.0455 41.2177 17.1625 41.6224 18.1824C42.027 19.2024 41.0261 21.0354 41.0261 21.0354C41.0261 21.0354 40.4936 21.7915 39.0738 20.1867C34.0192 32.7685 56.5945 44.8225 56.5945 44.8225C56.5945 44.8225 38.371 35.9924 35.1764 23.1039C34.2038 19.1453 33.863 16.6846 33.1957 14.8016C32.074 11.6918 30.853 9.43793 28.4109 7.94723Z" fill="white"/>
<path d="M34.438 7.24822C31.719 6.07848 31.5983 6.37091 30.7961 6.2354C31.2576 5.16551 37.3487 -3.48627 45.5269 1.57784C53.2579 6.37091 51.043 12.9899 54.0459 17.1981C50.1769 12.8829 52.839 6.22113 44.5898 1.90594C37.228 -1.9385 31.7545 5.89303 34.438 7.24822Z" fill="white"/>
<path d="M40.9835 4.99432C40.8719 5.29823 40.672 5.56152 40.4099 5.75013C40.1478 5.93875 39.8353 6.04402 39.513 6.05234C39.1907 6.06066 38.8733 5.97165 38.6019 5.7968C38.3304 5.62196 38.1174 5.36933 37.9904 5.07158C37.8634 4.77382 37.8282 4.44463 37.8894 4.12657C37.9506 3.80851 38.1053 3.5162 38.3336 3.28743C38.5619 3.05866 38.8532 2.90396 39.17 2.84332C39.4867 2.78268 39.8143 2.81889 40.1103 2.94727C40.496 3.10271 40.8046 3.40556 40.9683 3.78934C41.132 4.17313 41.1375 4.60649 40.9835 4.99432Z" fill="white"/>
<path d="M40.5931 4.545C40.5808 4.60701 40.5548 4.66544 40.517 4.71596C40.4791 4.76647 40.4304 4.80777 40.3745 4.83678C40.3186 4.8658 40.2569 4.88178 40.194 4.88355C40.1311 4.88531 40.0686 4.87282 40.0112 4.84699C39.9537 4.82116 39.9028 4.78266 39.8622 4.73434C39.8216 4.68603 39.7924 4.62915 39.7767 4.56793C39.761 4.50671 39.7592 4.44272 39.7715 4.38071C39.7838 4.31871 39.8098 4.26028 39.8477 4.20977C39.8961 4.11425 39.979 4.04089 40.0794 4.00467C40.1798 3.96845 40.2902 3.9721 40.388 4.01487C40.4859 4.05765 40.5638 4.13633 40.6059 4.23485C40.6479 4.33337 40.651 4.4443 40.6144 4.545H40.5931Z" fill="white"/>
<path d="M39.4855 4.58775C39.4683 4.62728 39.4364 4.65843 39.3965 4.67445C39.3567 4.69047 39.3121 4.69007 39.2725 4.67334C39.2378 4.65334 39.2116 4.6212 39.1989 4.58304C39.1862 4.54488 39.1879 4.50336 39.2036 4.46637C39.2194 4.42938 39.2482 4.39951 39.2844 4.38244C39.3207 4.36537 39.3619 4.36228 39.4003 4.37377C39.4385 4.39238 39.4684 4.42463 39.4841 4.4642C39.4999 4.50378 39.5004 4.54783 39.4855 4.58775Z" fill="white"/>
<path d="M54.1382 36.5986C54.1382 36.5986 59.5477 45.6213 54.4364 48.4529C49.325 51.2845 40.7208 57.1118 40.0251 62.8607C39.3294 68.6095 52.8674 52.4685 52.8674 52.4685C52.8674 52.4685 43.5036 60.6282 42.5666 60.6282C41.6295 60.6282 51.2701 50.072 53.4141 50.7211C55.558 51.3701 46.0806 61.1917 43.8799 63.2387C41.6792 65.2857 40.4936 67.939 40.4297 69.658C46.4946 67.3792 51.4153 62.7815 54.1169 56.8693C52.0623 62.2859 48.056 66.7285 42.8931 69.3156C42.8931 69.3156 40.1458 72.0545 40.0535 74.2299C40.0535 74.2299 51.5896 71.4768 57.1482 56.3273C57.1482 56.3273 56.1827 64.2444 47.5147 71.4911C38.8466 78.7377 45.3352 84.0015 45.3352 84.0015C45.3352 84.0015 55.4657 73.5024 58.561 61.3985C58.561 61.3985 49.7225 77.9175 47.11 77.3469C44.4975 76.7763 60.9179 62.8321 58.632 49.751C58.632 49.751 55.0824 60.9349 51.6677 64.0732C51.6677 64.0732 59.4768 50.8281 58.4048 40.9352C58.4048 40.9352 57.4038 53.5384 49.6302 60.7708C49.6302 60.7708 63.7008 42.9823 54.1382 36.5986Z" fill="white"/>
<path d="M59.8742 42.0336C59.8742 42.0336 63.4238 52.3116 59.1643 60.0005C59.1785 60.0005 67.2574 48.567 59.8742 42.0336Z" fill="white"/>
<path d="M50.6312 29.6302C50.6312 29.6302 54.5358 28.9169 61.28 20.9285C64.716 16.8344 82.2154 19.4663 90.3865 14.6732C90.5524 14.5828 90.7421 14.5461 90.9296 14.5681C91.1171 14.5902 91.2933 14.6699 91.4339 14.7964C91.5746 14.9229 91.6729 15.09 91.7154 15.2747C91.7579 15.4595 91.7426 15.653 91.6715 15.8287C90.0954 19.666 84.4729 24.8228 75.1233 30.0082C74.925 30.1044 74.7559 30.2522 74.6335 30.4361C73.6822 31.9625 68.8193 39.145 60.4352 40.0437C60.4352 40.0437 69.6641 37.7613 73.7106 29.0667C73.8082 28.8537 73.9799 28.6837 74.1933 28.5888C75.8119 27.8756 83.0815 24.3521 86.6311 19.4092C86.7251 19.2741 86.7783 19.1147 86.7843 18.9499C86.7903 18.7852 86.7488 18.6222 86.6648 18.4806C86.5809 18.339 86.458 18.2247 86.3109 18.1516C86.1639 18.0784 85.999 18.0495 85.8359 18.0683C80.9659 18.6674 67.5982 18.3607 63.6085 20.2865C61.8124 21.1496 59.1573 25.2793 56.9495 26.7843C52.8036 29.5874 50.6312 29.6302 50.6312 29.6302Z" fill="white"/>
<path d="M52.697 22.1125C54.1529 19.2719 56.5222 17.0095 59.4199 15.6932C65.269 12.9025 70.9446 9.75839 76.4153 6.27822C77.1252 5.80747 78.1617 5.8574 78.0765 6.92728C77.7429 11.4065 75.8119 15.1297 73.2065 17.2267C73.2065 17.2267 75.5989 13.5605 75.6486 10.4864C75.6486 10.2296 75.1872 9.77316 74.3069 10.1797C72.1771 11.1355 67.3994 13.532 60.0447 16.5277C57.1157 17.6477 54.5664 19.5854 52.697 22.1125Z" fill="white"/>
<path d="M84.9344 21.7701C79.8987 23.6941 74.4725 24.3575 69.1245 23.703C69.1245 23.703 75.1375 25.8428 83.7062 23.6388L84.9344 21.7701Z" fill="white"/>
<path d="M76.2805 27.7614C75.968 28.1906 75.6057 28.5809 75.2014 28.924C71.9736 29.1372 68.7365 28.6857 65.6885 27.5974C69.1853 28.2457 72.7654 28.3012 76.2805 27.7614Z" fill="white"/>
<path d="M71.4247 33.5245C68.7386 33.0953 66.1612 32.1457 63.8357 30.7286C66.4419 31.7764 69.1884 32.4302 71.9855 32.6686C71.7938 32.9896 71.6235 33.2678 71.4247 33.5245Z" fill="white"/>
<path d="M68.798 36.1065C68.564 36.3116 68.3038 36.4843 68.0242 36.62C66.0069 35.7032 64.1605 34.4464 62.5649 32.904C64.4925 34.2437 66.5885 35.3206 68.798 36.1065Z" fill="white"/>
<path d="M65.0993 38.1536C65.0065 38.2073 64.927 38.2814 64.8668 38.3703C64.8065 38.4592 64.7671 38.5607 64.7514 38.6671C63.2395 37.7068 61.8962 36.5018 60.7759 35.1008C62.0915 36.287 63.5428 37.3118 65.0993 38.1536Z" fill="white"/>
<path d="M55.9769 32.7685L56.4596 32.5188C56.772 32.3477 57.0844 32.1622 57.3754 31.9625C57.5245 31.8626 57.6736 31.7628 57.8156 31.6558L58.2415 31.3348C58.5184 31.1066 58.7882 30.8784 59.0437 30.6216C59.1644 30.5003 59.2922 30.3791 59.4129 30.2436L59.7678 29.8513C59.8743 29.7158 59.995 29.5802 60.0944 29.4376C60.1938 29.2949 60.3074 29.1523 60.4068 29.0096C60.5062 28.867 60.5984 28.7172 60.6907 28.5674C60.783 28.4176 60.8682 28.2607 60.9463 28.1109C61.0244 27.9611 61.1096 27.7971 61.1877 27.6402C61.2658 27.4833 61.3226 27.3121 61.3936 27.1552L61.4503 27.0268L61.5781 26.984C61.7504 26.9261 61.9188 26.857 62.0822 26.7771C62.2526 26.6987 62.4158 26.6131 62.5862 26.5204C62.9151 26.3362 63.2306 26.1288 63.5304 25.8998C63.6795 25.7857 63.8286 25.6716 63.9706 25.5503C64.1125 25.4291 64.2616 25.3007 64.3965 25.1652C64.5314 25.0297 64.6663 24.8942 64.7941 24.7586C64.9218 24.6231 65.0496 24.4733 65.1703 24.3235C65.291 24.1738 65.4117 24.0311 65.5253 23.8742C65.6389 23.7173 65.7453 23.5604 65.8518 23.4034C65.9583 23.2465 66.0648 23.0754 66.1642 22.9113C66.2636 22.7473 66.3559 22.5832 66.441 22.4049L66.5759 22.1481L66.7037 21.8842C66.796 21.713 66.8599 21.5347 66.9451 21.3564C67.0303 21.1781 67.0871 20.9926 67.1652 20.8143L67.364 20.258C67.3285 20.4506 67.293 20.6432 67.2504 20.8357C67.2078 21.0283 67.1581 21.2209 67.1013 21.4135C67.0445 21.606 66.9877 21.7915 66.9238 21.9769L66.8244 22.2551L66.7108 22.5333C66.6398 22.7187 66.5475 22.897 66.4695 23.0754L66.1926 23.6103C66.0932 23.7815 65.9867 23.9527 65.8802 24.1238C65.7737 24.295 65.6531 24.4519 65.5395 24.616C65.4259 24.78 65.2981 24.9369 65.1632 25.0867C65.0283 25.2365 64.9005 25.3934 64.7586 25.5361C64.4813 25.8402 64.1849 26.126 63.8712 26.392C63.5492 26.6383 63.2125 26.8645 62.8631 27.0696C62.6927 27.1694 62.5081 27.2622 62.3235 27.3477C62.1782 27.4204 62.0289 27.4847 61.8763 27.5403C61.8195 27.6687 61.7627 27.7971 61.6988 27.9255C61.6349 28.0539 61.5356 28.2607 61.4433 28.4248C61.351 28.5888 61.2587 28.7457 61.1593 28.9026C61.0599 29.0596 60.9534 29.2165 60.8469 29.3663C60.7404 29.516 60.6197 29.6658 60.4991 29.8013C60.3784 29.9369 60.2577 30.0866 60.137 30.2293C60.0163 30.3719 59.8814 30.4932 59.7466 30.6216L59.3348 30.9925L58.9089 31.342C58.7598 31.4561 58.6107 31.5631 58.4545 31.6629C58.2983 31.7628 58.1492 31.8626 57.9931 31.9625C57.8369 32.0624 57.6807 32.1479 57.5174 32.2335C57.1944 32.4054 56.8626 32.5601 56.5235 32.6972C56.1862 32.8311 55.8399 32.9408 55.4871 33.0253C55.6548 32.9486 55.8183 32.8629 55.9769 32.7685Z" fill="white"/>
</svg>
