<svg width="178" height="172" viewBox="0 0 178 172" fill="none" xmlns="http://www.w3.org/2000/svg">
  <path
    d="M98 91.5C98 99.5239 98 123.477 98 133.016C98 135.225 96.2142 137 94.005 137C85.2432 137 64.1897 137 52.5 137C27.371 137 7 116.629 7 91.5C7 66.371 27.371 46 52.5 46C77.629 46 98 66.371 98 91.5Z"
    fill="#009845" />
  <rect x="62.5" y="0.5" width="115" height="171" rx="3.5" stroke="black" />
  <path
    d="M90.5 100.5V100.547V100.595V100.643V100.691V100.74V100.789V100.838V100.888V100.938V100.988V101.039V101.09V101.142V101.193V101.245V101.298V101.351V101.404V101.458V101.511V101.566V101.62V101.675V101.73V101.786V101.842V101.898V101.954V102.011V102.068V102.126V102.184V102.242V102.3V102.359V102.418V102.478V102.537V102.597V102.658V102.718V102.779V102.841V102.902V102.964V103.026V103.089V103.152V103.215V103.278V103.342V103.406V103.47V103.535V103.6V103.665V103.73V103.796V103.862V103.928V103.995V104.062V104.129V104.196V104.264V104.332V104.4V104.469V104.538V104.607V104.676V104.746V104.816V104.886V104.956V105.027V105.098V105.169V105.24V105.312V105.384V105.456V105.529V105.602V105.675V105.748V105.821V105.895V105.969V106.043V106.118V106.192V106.267V106.342V106.418V106.493V106.569V106.645V106.722V106.798V106.875V106.952V107.03V107.107V107.185V107.263V107.341V107.419V107.498V107.577V107.656V107.735V107.814V107.894V107.974V108.054V108.134V108.215V108.295V108.376V108.457V108.539V108.62V108.702V108.784V108.866V108.948V109.031V109.113V109.196V109.279V109.362V109.446V109.529V109.613V109.697V109.781V109.866V109.95V110.035V110.12V110.205V110.29V110.375V110.461V110.546V110.632V110.718V110.805V110.891V110.977V111.064V111.151V111.238V111.325V111.412V111.5V111.588V111.675V111.763V111.851V111.939V112.028V112.116V112.205V112.294V112.383V112.472V112.561V112.65V112.74V112.829V112.919V113.009V113.099V113.189V113.279V113.37V113.46V113.551V113.641V113.732V113.823V113.914V114.005V114.097V114.188V114.28V114.371V114.463V114.555V114.647V114.739V114.831V114.923V115.016V115.108V115.201V115.294V115.386V115.479V115.572V115.665V115.758V115.851V115.945V116.038V116.132V116.225V116.319V116.412V116.506V116.6V116.694V116.788V116.882V116.976V117.071V117.165V117.259V117.354V117.448V117.543V117.637V117.732V117.827V117.922V118.016V118.111V118.206V118.301V118.396V118.492V118.587V118.682V118.777V118.872V118.968V119.063V119.159V119.254V119.35V119.445V119.541V119.636V119.732V119.828V119.923V120.019V120.115V120.211V120.307V120.402V120.498V120.594V120.69V120.786V120.882V120.978V121.074V121.17V121.266V121.362V121.458V121.554V121.65V121.746V121.842V121.938V122.034V122.13V122.226V122.322V122.418V122.514V122.61V122.706V122.802V122.898V122.993V123.089V123.185V123.281V123.377V123.473V123.569V123.665V123.76V123.856V123.952V124.047V124.143V124.239V124.334V124.43V124.525V124.621V124.716V124.812V124.907V125.003V125.098V125.193V125.288V125.383V125.479V125.574V125.669V125.763V125.858V125.953V126.048V126.143V126.237V126.332V126.426V126.521V126.615V126.71V126.804V126.898V126.992V127.086V127.18V127.274V127.368V127.462V127.556V127.649V127.743V127.836V127.929V128.023V128.116V128.209V128.302V128.395V128.488V128.58V128.673V128.765V128.858V128.95V129.042V129.135V129.227V129.319V129.41V129.502V129.594V129.685V129.776V129.868V129.959V130.05V130.141V130.232V130.322V130.413V130.503V130.594V130.684V130.774V130.864V130.954V131.043V131.133V131.222V131.311V131.401V131.49V131.578V131.667V131.756V131.844V131.932V132.021V132.109V132.196V132.284V132.372V132.459V132.546V132.633V132.72V132.807V132.894V132.98V133.066V133.153V133.239V133.324V133.41V133.495V133.581V133.666V133.751V133.836V133.92V134.005V134.089V134.173V134.257V134.341V134.424V134.507V134.591V134.674V134.756V134.839V134.921V135.003V135.085V135.167V135.249V135.33V135.411V135.493V135.573V135.654V135.734V135.815V135.895V135.974V136.054V136.133V136.212V136.291V136.37V136.448V136.527V136.605V136.683V136.76V136.838V136.915V136.992V137.068V137.145V137.221V137.297V137.373V137.449V137.524V137.599V137.674V137.748V137.823V137.897V137.971V138.044V138.118V138.191V138.264V138.336V138.409V138.481V138.553V138.624V138.696V138.767V138.837V138.908V138.978V139.048V139.118V139.188V139.257V139.326V139.394V139.463V139.531V139.599V139.666V139.734V139.801V139.868V139.934V140V140.066V140.132V140.197V140.262V140.327V140.391V140.455V140.519V140.583V140.646V140.709V140.772V140.834V140.896V140.958V141.019V141.081V141.141V141.202V141.262V141.322V141.382V141.441V141.5V141.559V141.617V141.675V141.733V141.79V141.847V141.904V141.96V142.016C90.5 143.947 88.9399 145.5 87.005 145.5H86.9536H86.9018H86.8498H86.7974H86.7449H86.692H86.6388H86.5854H86.5317H86.4777H86.4235H86.369H86.3142H86.2592H86.2038H86.1483H86.0924H86.0363H85.9799H85.9233H85.8664H85.8092H85.7518H85.6941H85.6362H85.578H85.5195H85.4608H85.4018H85.3426H85.2832H85.2234H85.1635H85.1032H85.0428H84.9821H84.9211H84.8599H84.7984H84.7367H84.6748H84.6126H84.5502H84.4875H84.4246H84.3615H84.2981H84.2345H84.1707H84.1066H84.0423H83.9777H83.913H83.848H83.7827H83.7173H83.6516H83.5856H83.5195H83.4531H83.3866H83.3197H83.2527H83.1855H83.118H83.0503H82.9824H82.9143H82.8459H82.7774H82.7086H82.6396H82.5704H82.501H82.4314H82.3616H82.2916H82.2213H82.1509H82.0803H82.0094H81.9384H81.8671H81.7956H81.724H81.6521H81.5801H81.5078H81.4354H81.3627H81.2899H81.2169H81.1437H81.0702H80.9966H80.9229H80.8489H80.7747H80.7003H80.6258H80.5511H80.4762H80.4011H80.3258H80.2504H80.1747H80.0989H80.0229H79.9468H79.8704H79.7939H79.7172H79.6404H79.5633H79.4861H79.4087H79.3312H79.2535H79.1756H79.0976H79.0193H78.941H78.8624H78.7837H78.7049H78.6258H78.5467H78.4673H78.3878H78.3082H78.2284H78.1484H78.0683H77.988H77.9076H77.827H77.7463H77.6654H77.5844H77.5032H77.4219H77.3405H77.2589H77.1771H77.0952H77.0132H76.931H76.8487H76.7663H76.6837H76.601H76.5182H76.4352H76.3521H76.2688H76.1854H76.1019H76.0183H75.9345H75.8506H75.7666H75.6824H75.5981H75.5137H75.4292H75.3446H75.2598H75.1749H75.0899H75.0048H74.9196H74.8342H74.7488H74.6632H74.5775H74.4917H74.4058H74.3198H74.2336H74.1474H74.061H73.9746H73.888H73.8013H73.7146H73.6277H73.5407H73.4537H73.3665H73.2792H73.1919H73.1044H73.0168H72.9292H72.8414H72.7536H72.6657H72.5776H72.4895H72.4013H72.313H72.2247H72.1362H72.0477H71.959H71.8703H71.7815H71.6926H71.6037H71.5147H71.4256H71.3364H71.2471H71.1578H71.0683H70.9789H70.8893H70.7997H70.71H70.6202H70.5303H70.4404H70.3505H70.2604H70.1703H70.0802H69.9899H69.8996H69.8093H69.7189H69.6284H69.5379H69.4473H69.3567H69.266H69.1752H69.0844H68.9936H68.9027H68.8117H68.7207H68.6297H68.5386H68.4474H68.3562H68.265H68.1737H68.0824H67.991H67.8996H67.8082H67.7167H67.6252H67.5337H67.4421H67.3504H67.2588H67.1671H67.0754H66.9836H66.8919H66.8H66.7082H66.6163H66.5245H66.4325H66.3406H66.2486H66.1567H66.0647H65.9726H65.8806H65.7885H65.6965H65.6044H65.5123H65.4201H65.328H65.2359H65.1437H65.0515H64.9594H64.8672H64.775H64.6828H64.5906H64.4984H64.4062H64.3139H64.2217H64.1295H64.0373H63.9451H63.8528H63.7606H63.6684H63.5762H63.484H63.3918H63.2997H63.2075H63.1153H63.0232H62.931H62.8389H62.7468H62.6547H62.5626H62.4706H62.3785H62.2865H62.1945H62.1025H62.0105H61.9186H61.8267H61.7348H61.6429H61.5511H61.4593H61.3675H61.2757H61.184H61.0923H61.0006H60.909H60.8174H60.7259H60.6343H60.5428H60.4514H60.36H60.2686H60.1773H60.086H59.9948H59.9036H59.8124H59.7213H59.6302H59.5392H59.4483H59.3573H59.2665H59.1757H59.0849H58.9942H58.9035H58.813H58.7224H58.6319H58.5415H58.4511H58.3608H58.2706H58.1804H58.0903H58.0002H57.9103H57.8203H57.7305H57.6407H57.551H57.4613H57.3718H57.2823H57.1928H57.1035H57.0142H56.925H56.8359H56.7468H56.6578H56.5689H56.4801H56.3914H56.3027H56.2142H56.1257H56.0373H55.949H55.8608H55.7727H55.6846H55.5967H55.5088H55.421H55.3334H55.2458H55.1583H55.0709H54.9836H54.8964H54.8093H54.7223H54.6354H54.5486H54.462H54.3754H54.2889H54.2025H54.1163H54.0301H53.944H53.8581H53.7723H53.6866H53.601H53.5155H53.4301H53.3448H53.2597H53.1747H53.0897H53.005H52.9203H52.8357H52.7513H52.667H52.5828H52.4988H52.4149H52.3311H52.2474H52.1638H52.0804H51.9972H51.914H51.831H51.7481H51.6654H51.5828H51.5003H51.4179H51.3358H51.2537H51.1718H51.09H51.0084H50.9269H50.8455H50.7643H50.6833H50.6024H50.5216H50.441H50.3606H50.2803H50.2001H50.1201H50.0403H49.9606H49.881H49.8017H49.7225H49.6434H49.5645H49.4858H49.4072H49.3288H49.2505H49.1724H49.0945H49.0168H48.9392H48.8618H48.7845H48.7075H48.6306H48.5538H48.4773H48.4009H48.3247H48.2487H48.1728H48.0971H48.0217H47.9463H47.8712H47.7963H47.7215H47.6469H47.5725H47.4983H47.4243H47.3505H47.2768H47.2034H47.1301H47.057H46.9841H46.9115H46.839H46.7667H46.6946H46.6227H46.551H46.4795H46.4082H46.3371H46.2662H46.1955H46.125H46.0547H45.9847H45.9148H45.8451H45.7757H45.7064H45.6374H45.5686H45.5C20.6472 145.5 0.5 125.353 0.5 100.5C0.5 75.6472 20.6472 55.5 45.5 55.5C70.3528 55.5 90.5 75.6472 90.5 100.5Z"
    stroke="black" />
  <path
    d="M24.7616 84.592C22.2457 88.2188 20.6185 92.6354 19.3415 96.8215C18.5506 99.4139 17.8521 102.521 17.5576 105.26C17.3428 107.259 17.2863 109.718 18.3981 111.504C20.0925 114.226 23.6452 115.065 26.2452 113.09C28.7592 111.182 31.4816 107.454 33.1319 105.132C37.4548 99.0486 41.1953 92.5971 44.0407 85.6897C44.653 84.2032 45.454 81.7625 45.7388 80.0466C45.8034 79.6569 45.9892 77.5689 45.7559 77.0278C45.5675 76.5908 44.7216 77.2907 44.5038 77.7139C42.4004 81.8014 41.9108 87.6125 41.3478 91.9674C40.6119 97.6599 40.2672 101.65 40.2672 107.302C40.2672 109.879 40.2301 113.631 41.3649 116.169C41.596 116.686 42.2484 117.488 42.84 117.662C44.3608 118.108 45.3445 116.321 45.8674 115.32C47.2956 112.587 48.8351 108.535 49.821 105.844C51.6 100.987 52.6985 97.6755 54.0147 92.7479C54.7136 90.1313 55.0738 88.4464 55.4384 85.9384C55.5411 85.2316 55.6068 83.4328 55.0181 83.8373C53.1029 85.1532 51.8737 88.6149 51.0045 90.5438C49.6209 93.6144 48.0949 97.2962 46.9909 100.441C45.7757 103.902 44.3445 107.857 44.2551 111.598C44.1984 113.971 45.1143 116.742 47.0338 118.253C47.7981 118.855 48.3241 118.911 49.2636 118.922C51.9165 118.954 54.66 118.234 57.1107 117.284C61.6387 115.53 65.2164 112.686 68.7399 109.446C70.5047 107.823 72.3536 106.223 73.8513 104.351"
    stroke="black" stroke-linecap="round" stroke-linejoin="round" />
  <line x1="80" y1="38.5" x2="163" y2="38.5" stroke="black" />
  <line x1="80" y1="67.5" x2="163" y2="67.5" stroke="black" />
  <line x1="80" y1="96.5" x2="163" y2="96.5" stroke="black" />
  <line x1="80" y1="125.5" x2="163" y2="125.5" stroke="black" />
  <line x1="80" y1="154.5" x2="163" y2="154.5" stroke="black" />
</svg>