<svg width="38" height="38" viewBox="0 0 38 38" fill="none" xmlns="http://www.w3.org/2000/svg">
  <g clip-path="url(#clip0)">
    <path
      d="M0.882777 38C0.669398 38 0.461818 37.9156 0.307873 37.7599C0.104931 37.5547 0.0266535 37.2567 0.102902 36.978L2.57328 27.957C1.03527 25.1758 0.224377 22.0296 0.225536 18.8359C0.229885 8.44963 8.68211 0 19.0675 0C24.1048 0.00202942 28.838 1.96419 32.3955 5.52437C35.9525 9.08484 37.9106 13.8177 37.9092 18.851C37.9045 29.2375 29.4523 37.6878 19.0675 37.6878C19.0675 37.6878 19.0597 37.6878 19.0594 37.6878C16.026 37.6866 13.0187 36.9473 10.341 35.547L1.08775 37.9736C1.01991 37.9913 0.950907 38 0.882777 38V38Z"
      fill="white" />
    <path
      d="M0.882812 37.1913L3.44104 27.8494C1.86302 25.1152 1.03299 22.0136 1.03415 18.8362C1.03821 8.89581 9.12748 0.808594 19.0676 0.808594C23.8912 0.810623 28.4189 2.68812 31.8237 6.0958C35.2282 9.50347 37.1025 14.0331 37.1007 18.8507C37.0964 28.7907 29.006 36.8791 19.0676 36.8791C19.067 36.8791 19.0679 36.8791 19.0676 36.8791H19.0598C16.0417 36.8779 13.0764 36.121 10.4425 34.6844L0.882812 37.1913ZM10.8853 31.4209L11.4329 31.7453C13.7337 33.1108 16.3716 33.833 19.0618 33.8344H19.0676C27.3285 33.8344 34.0523 27.1118 34.0557 18.8495C34.0572 14.8455 32.4998 11.0803 29.6699 8.24814C26.8397 5.41594 23.0769 3.85532 19.0731 3.85358C10.8055 3.85358 4.08205 10.5753 4.07886 18.8373C4.0777 21.6686 4.86976 24.4258 6.37037 26.8118L6.72697 27.3788L5.21244 32.9081L10.8853 31.4209Z"
      fill="white" />
    <path
      d="M1.50781 36.5619L3.97761 27.5429C2.45381 24.9035 1.65277 21.9089 1.65364 18.8419C1.65741 9.24565 9.4669 1.43848 19.0623 1.43848C23.7195 1.44051 28.0906 3.25307 31.3768 6.54276C34.6638 9.83244 36.4729 14.2053 36.4712 18.8555C36.4671 28.4521 28.6574 36.2601 19.0631 36.2601C19.0623 36.2601 19.0634 36.2601 19.0631 36.2601H19.0553C16.1419 36.259 13.279 35.5278 10.7364 34.142L1.50781 36.5619Z"
      fill="#64B161" />
    <path
      d="M0.882812 37.1913L3.44104 27.8494C1.86302 25.1152 1.03299 22.0136 1.03415 18.8362C1.03821 8.89581 9.12748 0.808594 19.0676 0.808594C23.8912 0.810623 28.4189 2.68812 31.8237 6.0958C35.2282 9.50347 37.1025 14.0331 37.1007 18.8507C37.0964 28.7907 29.006 36.8791 19.0676 36.8791C19.067 36.8791 19.0679 36.8791 19.0676 36.8791H19.0598C16.0417 36.8779 13.0764 36.121 10.4425 34.6844L0.882812 37.1913ZM10.8853 31.4209L11.4329 31.7453C13.7337 33.1108 16.3716 33.833 19.0618 33.8344H19.0676C27.3285 33.8344 34.0523 27.1118 34.0557 18.8495C34.0572 14.8455 32.4998 11.0803 29.6699 8.24814C26.8397 5.41594 23.0769 3.85532 19.0731 3.85358C10.8055 3.85358 4.08205 10.5753 4.07886 18.8373C4.0777 21.6686 4.86976 24.4258 6.37037 26.8118L6.72697 27.3788L5.21244 32.9081L10.8853 31.4209Z"
      fill="white" />
    <path fill-rule="evenodd" clip-rule="evenodd"
      d="M14.5587 11.2999C14.2212 10.5496 13.8658 10.5345 13.5446 10.5215C13.2819 10.5102 12.9813 10.5107 12.6812 10.5107C12.3808 10.5107 11.8926 10.6238 11.4798 11.0746C11.0666 11.5255 9.90234 12.6156 9.90234 14.8326C9.90234 17.0499 11.5172 19.1921 11.7424 19.493C11.9677 19.7936 14.8596 24.4886 19.4394 26.2948C23.2457 27.796 24.0201 27.4974 24.8464 27.4223C25.6726 27.3472 27.5121 26.3322 27.8876 25.2801C28.2633 24.2279 28.2633 23.3263 28.1505 23.1376C28.0378 22.95 27.7374 22.8372 27.2869 22.6119C26.8364 22.3867 24.6211 21.2963 24.208 21.1461C23.7948 20.9956 23.4945 20.9208 23.1941 21.372C22.8935 21.8225 22.0307 22.8372 21.7677 23.1376C21.5048 23.4388 21.2418 23.4765 20.7913 23.2509C20.3408 23.0251 18.8895 22.5496 17.1679 21.0145C15.8285 19.8203 14.924 18.3452 14.661 17.8941C14.3984 17.4436 14.6567 17.2209 14.859 16.9748C15.2235 16.5315 15.8349 15.7345 15.9851 15.4341C16.1353 15.1332 16.0602 14.8703 15.9477 14.6447C15.8349 14.4194 14.9591 12.1911 14.5587 11.2999V11.2999Z"
      fill="white" />
  </g>
  <defs>
    <clipPath id="clip0">
      <rect width="38" height="38" fill="white" />
    </clipPath>
  </defs>
</svg>